<?xml version="1.0" standalone="no"?>
<!DOCTYPE svg PUBLIC "-//W3C//DTD SVG 20010904//EN"
 "http://www.w3.org/TR/2001/REC-SVG-20010904/DTD/svg10.dtd">
<svg version="1.0" xmlns="http://www.w3.org/2000/svg"
 width="1024.000000pt" height="1024.000000pt" viewBox="0 0 1024.000000 1024.000000"
 preserveAspectRatio="xMidYMid meet">
<metadata>
Created by potrace 1.11, written by Peter Selinger 2001-2013
</metadata>
<g transform="translate(0.000000,1024.000000) scale(0.100000,-0.100000)"
fill="#000000" stroke="none">
<path d="M0 9470 c0 -701 1 -770 16 -770 13 0 15 -6 9 -27 -3 -16 -11 -29 -16
-31 -5 -2 -9 -86 -9 -193 0 -188 0 -189 21 -177 17 11 22 10 33 -4 21 -28 48
-21 87 22 26 28 45 40 65 41 47 1 71 8 106 29 39 23 48 72 18 105 -13 14 -17
32 -15 62 4 54 8 60 48 69 17 3 50 22 73 40 22 19 43 32 45 29 3 -2 38 2 79 9
63 10 77 10 89 -1 9 -9 24 -12 45 -7 41 8 52 20 37 38 -10 12 -9 19 2 38 8 13
18 38 22 57 4 19 16 42 27 51 18 14 19 17 4 29 -18 15 -22 51 -5 51 6 0 33
-18 59 -40 26 -22 57 -40 68 -40 11 0 34 -11 50 -25 17 -14 35 -25 42 -25 9 0
10 -11 6 -35 -6 -28 -4 -35 9 -35 8 0 34 -18 57 -40 l42 -39 -28 -11 c-31 -11
-97 -58 -109 -77 -4 -7 -17 -13 -28 -13 -12 0 -23 -10 -29 -25 -10 -26 -25
-31 -49 -16 -15 10 -48 -7 -86 -43 -11 -10 -43 -34 -72 -52 -28 -19 -55 -39
-59 -45 -3 -6 -25 -20 -48 -30 -22 -10 -52 -28 -66 -40 l-25 -21 48 6 c57 7
90 23 165 81 71 55 211 124 322 160 47 16 99 34 115 41 17 7 43 16 58 20 16 3
31 13 34 20 9 25 94 66 142 69 40 2 52 9 93 48 37 36 57 47 93 53 59 8 99 -7
90 -36 -5 -14 -2 -20 9 -20 9 0 16 4 16 8 0 4 13 15 29 25 53 31 46 -1 -11
-53 -57 -52 -61 -80 -4 -36 19 14 41 26 48 26 7 0 22 7 32 15 25 19 55 19 62
0 5 -13 -58 -85 -75 -85 -8 0 -31 -50 -31 -66 0 -7 -15 -30 -32 -53 -40 -49
-78 -109 -78 -122 0 -5 -27 -50 -60 -100 -33 -50 -60 -97 -60 -105 0 -8 -4
-14 -9 -14 -16 0 -88 -74 -95 -98 -7 -20 -50 -41 -62 -30 -4 5 -11 107 -13
201 -1 31 -5 57 -11 57 -5 0 -10 -6 -10 -14 0 -7 -18 -46 -40 -86 -22 -40 -40
-80 -40 -89 0 -9 -7 -26 -15 -38 -8 -12 -20 -46 -26 -75 -6 -29 -15 -72 -20
-96 -5 -24 -16 -50 -24 -59 -28 -28 -55 -92 -55 -131 0 -22 -6 -45 -14 -51 -8
-6 -17 -37 -22 -69 -9 -65 -7 -59 -22 -92 -6 -14 -11 -21 -11 -16 -1 5 -12 -1
-26 -14 -17 -16 -25 -34 -25 -57 0 -20 -8 -43 -20 -55 -11 -12 -20 -28 -20
-35 0 -8 -12 -13 -30 -13 -17 0 -30 -5 -30 -12 -1 -14 -69 -50 -110 -58 -21
-5 -25 -11 -25 -42 0 -48 -19 -69 -35 -39 -12 23 -30 20 -30 -5 0 -14 -23 -44
-33 -44 -3 0 -10 14 -16 31 -8 23 -15 29 -29 25 -11 -4 -24 0 -32 9 -19 23
-30 8 -30 -41 0 -47 -13 -59 -24 -21 -6 21 -7 21 -22 -10 -9 -17 -26 -34 -37
-36 l-22 -4 22 -8 c13 -4 23 -11 23 -15 0 -9 -29 -35 -33 -29 -1 2 -9 16 -16
31 -11 22 -19 26 -41 21 -34 -6 -40 4 -42 62 0 26 -7 53 -15 60 -12 13 -20 69
-13 100 6 28 0 36 -21 25 -15 -9 -24 -8 -35 1 -9 7 -41 13 -73 14 -31 1 -63 5
-70 9 -6 4 -17 3 -24 -2 -7 -5 -31 -9 -55 -8 l-42 1 0 -162 c0 -160 0 -162 23
-165 12 -2 26 -13 32 -25 5 -13 19 -24 30 -25 11 -1 28 -2 37 -3 9 0 20 -3 23
-6 3 -4 21 -4 40 -2 26 3 35 0 35 -12 0 -8 5 -15 10 -15 6 0 10 -13 10 -29 0
-30 -19 -54 -40 -49 -27 6 -55 -142 -30 -157 6 -3 10 -14 10 -23 0 -9 12 -33
26 -54 24 -34 26 -46 27 -135 0 -54 -4 -113 -8 -132 -6 -29 -5 -33 9 -28 15 6
20 -3 28 -57 4 -23 28 -34 28 -13 0 9 5 17 11 19 6 2 14 28 17 58 5 39 11 55
22 55 20 0 19 -28 -2 -92 -23 -67 -37 -316 -22 -376 6 -26 4 -28 -16 -25 -13
1 -25 -3 -27 -9 -3 -8 5 -13 22 -13 25 0 26 -2 20 -42 -7 -51 34 -178 81 -251
25 -39 36 -47 77 -56 70 -16 108 -14 149 9 28 15 39 16 46 7 17 -20 20 -221 3
-241 -10 -12 -17 -14 -27 -5 -12 10 -12 13 0 23 16 12 5 56 -14 56 -7 0 -9 19
-5 53 5 51 5 52 -9 22 -9 -17 -13 -43 -10 -61 4 -20 0 -34 -10 -43 -9 -8 -16
-24 -16 -37 0 -58 -98 -68 -189 -18 -52 29 -61 30 -54 7 7 -27 163 -115 225
-128 19 -4 44 -26 77 -68 53 -67 109 -112 181 -142 25 -11 64 -34 88 -52 24
-18 47 -33 52 -33 5 0 39 -30 75 -66 37 -36 80 -73 96 -83 37 -23 121 -95 175
-151 32 -33 42 -50 38 -65 -4 -11 -7 -21 -8 -22 -6 -8 -124 -9 -134 -1 -8 7
-12 7 -12 0 0 -5 7 -15 15 -22 8 -7 15 -18 15 -25 0 -14 32 -45 48 -45 11 0
37 -21 97 -79 37 -36 105 -48 105 -19 0 10 7 18 15 18 8 0 15 9 15 20 0 11 -4
20 -10 20 -13 0 -13 37 1 45 6 5 8 26 4 60 -6 43 -4 53 9 58 21 8 21 41 0 58
-52 43 -94 220 -59 249 23 19 49 2 53 -36 6 -47 62 -174 109 -244 31 -47 43
-75 43 -101 0 -21 19 -80 44 -140 30 -69 42 -108 36 -118 -4 -9 -14 -45 -20
-81 -7 -36 -20 -73 -29 -83 -26 -31 -25 -129 2 -176 32 -56 58 -84 98 -109 20
-12 43 -30 50 -39 13 -15 10 -16 -32 -11 -38 4 -53 13 -87 49 -67 71 -73 107
-59 342 6 93 4 118 -5 115 -8 -3 -13 -23 -13 -54 0 -42 -3 -49 -21 -52 -18 -3
-23 -12 -29 -57 -5 -41 -11 -56 -26 -60 -10 -4 -19 -12 -19 -20 0 -12 -154
-145 -168 -145 -4 0 -23 -25 -42 -56 -19 -30 -45 -68 -57 -83 -28 -35 -28 -41
-4 -41 25 0 35 -15 18 -28 -6 -5 -43 -26 -82 -47 -38 -21 -98 -58 -133 -81
-35 -24 -73 -44 -85 -44 -12 0 -32 -13 -46 -30 -13 -17 -29 -30 -35 -30 -7 0
-24 -17 -37 -37 -62 -93 -91 -133 -100 -138 -5 -4 -9 -17 -9 -30 0 -13 -5 -27
-10 -30 -14 -8 -13 -55 1 -55 6 0 8 7 5 16 -8 20 19 47 42 41 15 -4 15 -5 1
-6 -9 0 -19 -8 -23 -16 -4 -11 2 -15 24 -15 40 0 79 -19 120 -58 28 -27 32
-36 24 -50 -9 -14 -33 -18 -115 -23 -102 -6 -149 -20 -149 -45 0 -13 28 -28
47 -25 16 2 53 -17 53 -27 0 -4 -15 -12 -32 -17 -28 -9 -33 -14 -30 -38 4 -31
-20 -46 -43 -27 -12 10 -15 9 -16 -6 -1 -11 -1 -23 0 -27 1 -5 -4 -5 -11 -1
-18 12 -38 14 -38 4 0 -4 24 -22 54 -38 29 -17 56 -38 59 -46 7 -17 47 -22 47
-6 0 6 -7 10 -15 10 -18 0 -20 17 -3 23 22 7 48 -12 41 -30 -6 -14 1 -16 58
-11 35 3 109 2 164 -3 55 -5 136 -11 180 -14 86 -6 106 -15 86 -39 -10 -12
-31 -15 -100 -12 -47 3 -96 7 -107 11 -12 4 -24 3 -27 -2 -3 -5 -48 -8 -99 -7
-287 7 -275 7 -261 -7 5 -5 32 -12 58 -13 26 -2 51 -9 55 -17 7 -10 18 -10 63
1 61 14 92 8 83 -15 -4 -12 3 -15 34 -15 21 0 42 -4 45 -10 11 -17 25 -11 25
11 0 13 -4 18 -12 13 -9 -5 -10 -4 -3 4 10 11 42 16 84 14 18 -2 21 -5 13 -15
-13 -15 -6 -27 30 -50 l28 -17 -10 26 c-6 14 -14 34 -20 44 -8 15 -5 19 18 23
15 3 30 0 34 -6 6 -9 12 -9 27 0 15 9 28 10 46 3 15 -6 40 -10 57 -10 26 0 29
-2 18 -15 -11 -13 -8 -15 14 -15 14 0 26 -5 26 -11 0 -6 8 -8 19 -4 11 3 25
-1 34 -10 18 -17 67 -38 67 -27 0 4 -7 16 -15 26 -8 11 -15 23 -15 28 0 11 38
10 45 -2 3 -5 15 -15 25 -20 17 -9 19 -8 13 7 -3 10 -10 23 -15 29 -12 17 17
25 47 14 14 -5 25 -6 25 -2 0 10 -16 34 -21 32 -2 -1 -17 2 -32 5 -29 8 -47
37 -47 76 0 23 15 24 53 4 15 -8 40 -14 55 -13 15 0 42 -3 59 -7 26 -6 34 -4
39 9 3 9 1 22 -5 30 -23 28 30 37 60 10 13 -12 16 -25 12 -45 -5 -25 1 -35 43
-75 27 -25 56 -51 64 -57 9 -7 36 -34 60 -60 42 -46 43 -49 25 -60 -18 -11
-16 -12 20 -17 29 -4 41 -10 43 -24 3 -11 10 -26 18 -34 8 -7 14 -18 14 -23 0
-12 -17 -12 -25 1 -3 5 -23 10 -43 10 l-37 -1 40 -17 c24 -11 35 -21 28 -25
-7 -4 -59 -10 -116 -13 -94 -5 -106 -4 -140 16 -21 13 -40 20 -42 18 -3 -3 6
-11 20 -18 27 -14 31 -25 14 -35 -5 -4 -19 1 -29 10 -16 15 -24 15 -52 6 -18
-7 -88 -15 -155 -18 l-122 -6 -36 31 c-19 18 -48 38 -64 47 -28 14 -29 14 -27
-10 0 -16 7 -25 18 -25 9 0 23 -7 32 -15 8 -8 20 -15 26 -15 6 0 9 -4 6 -9 -8
-13 -193 -23 -234 -12 -20 5 -59 12 -85 16 -39 5 -62 18 -126 70 -44 35 -82
61 -85 58 -3 -4 -17 4 -30 16 -23 22 -26 22 -48 7 -23 -17 -58 -22 -58 -8 0 4
-18 27 -40 51 -22 24 -38 47 -35 51 2 4 -11 25 -29 46 -18 21 -35 46 -38 54
-5 13 -7 12 -13 -2 -4 -11 1 -28 14 -47 12 -16 21 -34 21 -39 0 -6 3 -12 8
-14 4 -1 23 -25 42 -53 19 -27 42 -56 52 -63 10 -7 25 -26 33 -43 15 -27 116
-89 147 -89 7 0 33 -16 57 -35 24 -19 48 -35 54 -35 6 0 40 -13 76 -29 102
-45 207 -86 310 -121 l95 -33 210 7 c116 4 249 12 296 17 47 5 137 13 200 19
63 5 138 12 166 16 48 6 53 4 68 -19 9 -13 16 -42 16 -63 0 -35 7 -450 9 -516
1 -39 32 -36 51 5 8 17 22 33 30 33 8 1 21 2 28 3 8 1 10 9 6 27 -5 19 -4 25
5 20 16 -10 14 0 -5 19 -14 13 -14 20 -4 45 10 25 16 28 41 23 39 -7 38 2 -15
111 -24 50 -54 116 -66 146 -13 30 -34 79 -48 108 -28 59 -22 76 24 70 24 -3
30 -10 45 -58 27 -89 93 -213 177 -335 61 -88 236 -96 314 -13 15 15 32 28 39
28 6 0 33 10 58 21 78 37 89 40 174 54 15 2 31 7 36 10 5 3 32 7 59 9 37 3 65
15 108 44 62 41 154 82 185 82 17 0 134 56 170 82 24 17 51 2 47 -24 -2 -15
-15 -28 -36 -37 -18 -8 -31 -20 -28 -26 2 -6 -8 -17 -24 -23 -15 -7 -32 -23
-37 -35 -8 -17 -20 -23 -49 -25 -22 -2 -40 -7 -42 -12 -2 -6 -17 -10 -33 -10
-16 0 -29 -4 -29 -10 0 -13 -1 -13 110 10 52 12 111 23 130 26 48 8 51 14 7
14 -57 0 -47 25 16 38 99 20 130 23 136 14 10 -16 103 -2 97 14 -7 18 10 27
31 16 17 -10 31 -6 108 29 22 10 52 22 68 28 15 6 27 15 27 21 0 6 8 10 18 9
30 -4 72 13 83 32 5 11 18 19 27 19 10 0 26 6 37 14 11 7 33 16 50 20 37 9 57
25 48 39 -4 6 -1 7 6 2 7 -4 27 0 44 8 18 8 43 19 57 25 24 9 66 30 235 115
44 22 75 42 68 44 -7 2 -21 0 -32 -6 -24 -13 -41 -14 -41 -3 0 12 46 32 72 32
12 0 18 3 15 7 -10 10 13 33 33 33 13 0 17 -6 13 -18 -4 -16 0 -18 26 -14 16
2 32 11 35 19 4 11 2 13 -9 9 -8 -3 -15 -2 -15 2 0 10 77 52 96 52 8 0 14 5
14 11 0 8 14 10 43 6 34 -5 39 -4 25 5 -15 11 -11 14 30 25 26 7 58 12 72 13
18 0 21 3 11 9 -11 7 -9 10 8 16 11 3 26 3 32 0 6 -4 20 2 32 13 12 11 35 24
52 28 16 4 38 15 49 25 10 10 23 16 27 13 4 -2 10 0 14 6 3 5 17 10 31 10 31
0 141 49 148 65 3 8 -7 15 -25 19 -38 7 -37 23 4 31 17 4 39 13 47 20 8 6 42
22 75 35 33 13 74 32 90 41 17 9 62 25 100 34 39 9 80 23 91 30 12 8 53 19 90
26 44 7 75 19 86 31 9 11 30 23 45 27 46 13 133 13 148 1 7 -6 27 -12 43 -12
41 -1 179 30 227 51 96 44 240 89 380 120 231 52 311 63 467 66 141 3 334 19
367 31 19 6 241 37 264 36 12 -1 17 4 13 14 -4 11 5 14 44 14 38 0 48 3 44 14
-4 9 6 16 33 21 59 10 155 44 172 59 30 27 121 67 140 61 12 -3 21 1 27 16 5
11 36 35 69 52 37 20 61 40 63 52 2 11 21 36 41 56 29 28 42 34 54 27 16 -9
22 0 18 25 -1 4 14 22 32 40 19 18 38 43 42 56 6 21 4 20 -30 -10 -21 -19 -41
-44 -46 -56 -6 -15 -14 -20 -28 -16 -12 3 -21 1 -21 -5 0 -15 -38 -2 -44 15
-4 9 8 27 31 46 20 18 46 41 57 52 12 11 34 26 50 33 25 11 31 11 38 -3 5 -8
14 -13 20 -9 13 8 70 135 64 142 -3 3 3 17 13 31 10 14 21 44 24 66 4 22 11
60 17 85 5 25 12 69 14 99 3 29 10 69 17 88 15 45 7 152 -16 217 l-17 49 39
36 c22 20 68 84 103 144 86 146 118 167 275 183 104 10 183 29 245 58 30 14
63 26 73 26 10 0 42 11 70 24 29 14 66 27 82 31 17 3 49 11 73 17 l42 11 0 76
0 76 -93 -3 c-116 -4 -161 13 -240 93 -31 32 -57 61 -57 66 0 4 -6 14 -13 21
-37 39 -105 168 -118 226 -6 26 -13 77 -16 114 -5 64 -3 69 29 108 20 26 32
51 30 65 -2 13 2 26 8 30 9 6 9 10 -1 16 -12 8 -12 11 1 18 12 9 12 11 -4 17
-16 6 -14 11 19 40 20 19 38 34 41 34 3 0 18 -9 33 -21 26 -19 32 -20 65 -8
20 7 36 17 36 21 0 4 9 8 20 8 11 0 20 5 20 10 0 14 33 12 49 -2 10 -11 16 -9
28 10 9 12 24 22 33 22 28 0 50 11 50 25 0 15 22 25 56 25 22 0 24 3 24 55 0
50 -2 55 -22 55 -13 0 -32 -7 -43 -16 -11 -8 -38 -19 -60 -25 -43 -10 -137
-50 -145 -60 -3 -4 -19 -10 -36 -13 -18 -4 -40 -16 -50 -27 -9 -10 -24 -19
-33 -19 -9 0 -41 -10 -71 -21 -154 -59 -189 -72 -230 -86 -25 -8 -68 -26 -97
-39 -28 -13 -55 -24 -59 -24 -4 0 -22 -11 -40 -25 -18 -14 -37 -25 -42 -25 -5
0 -15 -6 -21 -14 -10 -11 -8 -16 9 -21 12 -4 19 -9 16 -12 -3 -4 -2 -11 3 -17
5 -6 1 -32 -8 -61 -13 -40 -21 -51 -41 -53 -13 -2 -33 -10 -44 -18 -11 -8 -31
-14 -45 -14 -13 0 -34 -11 -47 -25 -32 -34 -54 -33 -54 4 0 20 -8 35 -22 45
-27 20 -48 20 -48 3 0 -15 -54 -67 -70 -67 -12 0 -30 -34 -30 -58 0 -10 -10
-30 -23 -44 -12 -14 -29 -35 -39 -46 -14 -17 -28 -20 -94 -20 -98 -1 -98 -1
-204 99 -19 19 -38 33 -41 32 -4 -1 -5 6 -2 16 6 25 -25 36 -47 16 -9 -8 -20
-12 -23 -8 -4 3 -7 -1 -7 -10 0 -9 -7 -20 -16 -25 -15 -8 -15 -12 -1 -33 8
-13 21 -45 28 -71 7 -27 19 -48 26 -48 7 0 13 -7 13 -15 0 -8 -7 -15 -15 -15
-8 0 -15 7 -15 15 0 8 -8 19 -17 24 -10 5 -40 39 -68 75 -33 43 -61 69 -82 76
-38 13 -41 25 -12 56 20 21 20 26 8 76 -7 29 -14 54 -15 56 -1 2 -49 -12 -106
-31 -56 -20 -129 -41 -161 -48 -31 -7 -62 -18 -68 -26 -6 -7 -18 -13 -25 -13
-18 0 -19 78 -2 115 14 30 28 33 28 5 0 -11 7 -23 15 -26 18 -7 164 65 225
111 25 18 60 37 78 41 22 4 36 14 42 30 5 13 13 24 18 24 9 0 56 79 50 85 -2
2 -30 -5 -62 -16 -82 -28 -102 -21 -46 16 35 24 46 38 48 62 3 27 -2 33 -44
57 -52 29 -93 33 -132 12 -15 -8 -41 -20 -59 -26 -17 -7 -34 -17 -36 -23 -2
-7 13 -43 34 -80 22 -38 37 -73 33 -78 -8 -14 -40 -11 -54 6 -15 18 -40 20
-40 4 0 -7 -11 -9 -27 -6 -15 3 -38 1 -51 -4 -29 -11 -72 9 -96 46 -19 28 -56
165 -56 207 0 17 7 31 20 38 11 6 20 17 20 25 0 14 13 20 34 16 5 -1 18 7 30
17 11 11 38 23 59 26 20 4 46 16 56 28 14 14 27 19 43 15 14 -4 31 1 46 13 26
21 28 30 7 30 -10 0 -7 7 9 25 13 14 28 25 35 25 6 0 17 11 23 25 6 13 19 27
30 30 10 4 18 16 18 27 0 14 5 18 15 14 11 -4 15 1 15 19 0 18 5 25 20 25 14
0 20 8 24 33 29 210 44 251 109 295 45 32 97 51 97 36 -1 -5 -21 -22 -46 -38
-26 -16 -54 -42 -64 -58 -42 -69 -52 -231 -16 -266 15 -15 22 -13 100 26 84
43 99 59 108 117 2 15 15 22 49 28 58 11 70 33 75 139 1 42 9 91 17 110 18 42
70 98 91 98 23 0 20 -13 -8 -39 -15 -14 -29 -44 -35 -73 -14 -61 -14 -168 -1
-202 9 -25 10 -25 48 -12 22 8 48 19 58 25 11 6 36 17 57 25 20 8 37 22 37 30
0 8 7 19 14 23 8 5 21 26 28 48 11 35 17 40 42 40 26 0 34 7 58 53 15 30 28
69 28 86 0 62 49 175 76 176 6 0 23 9 38 21 14 11 26 16 26 10 0 -5 -6 -14
-14 -18 -34 -21 -66 -125 -66 -220 0 -39 3 -78 6 -87 7 -17 39 -22 49 -7 3 5
27 17 55 26 28 9 66 33 89 56 23 21 44 39 48 39 15 0 51 43 47 55 -7 17 25
125 37 125 5 0 21 11 36 25 57 50 124 95 142 95 26 0 82 33 77 45 -2 6 -16 9
-32 8 -16 0 -23 1 -17 4 7 2 13 11 13 19 0 18 11 18 46 -1 19 -9 32 -11 38 -5
6 6 22 10 37 10 15 0 32 6 38 14 7 8 22 17 35 20 12 3 28 17 34 31 6 14 18 25
27 25 8 0 15 4 15 10 0 23 63 80 89 80 30 0 89 16 111 29 12 8 12 13 -4 30
-17 19 -17 20 13 36 l31 16 0 1204 0 1205 -2765 0 c-1778 0 -2765 -3 -2765
-10 0 -5 10 -28 21 -50 32 -61 16 -59 -27 4 l-39 56 -147 0 -148 0 0 -29 c0
-54 -37 -153 -128 -341 -60 -124 -90 -170 -107 -164 -8 4 -33 -23 -64 -70 -28
-41 -60 -80 -70 -86 -11 -5 -23 -19 -26 -30 -4 -12 -18 -23 -35 -27 -29 -5
-79 -53 -114 -108 -24 -38 -125 -144 -149 -157 -13 -6 -23 -6 -33 3 -18 15
-18 25 4 47 25 26 106 123 125 152 9 14 35 48 57 75 22 28 52 67 66 88 14 21
58 73 97 115 40 42 92 107 117 145 25 37 48 67 53 67 4 0 23 31 41 70 18 38
45 83 59 100 22 26 57 113 57 142 0 4 -972 8 -2160 8 l-2160 0 0 -770z m4820
540 c0 -11 -4 -20 -10 -20 -5 0 -10 9 -10 20 0 11 5 20 10 20 6 0 10 -9 10
-20z m-137 -40 c8 -22 13 -49 10 -60 -4 -14 0 -20 12 -20 12 0 16 6 12 19 -3
11 1 22 8 25 17 6 55 -30 55 -53 0 -11 8 -36 19 -58 10 -21 31 -65 47 -98 16
-33 34 -64 40 -70 6 -5 14 -21 17 -35 3 -14 12 -51 21 -83 21 -76 38 -229 27
-240 -5 -5 -14 1 -22 14 -27 52 -46 58 -153 53 -115 -6 -150 -20 -173 -69 -9
-19 -20 -35 -23 -35 -3 0 -13 30 -20 68 -23 109 -16 338 15 468 14 58 25 115
25 127 0 24 40 87 56 87 6 0 18 -18 27 -40z m200 -143 c6 -63 -9 -47 -18 18
-5 33 -4 47 3 40 5 -5 12 -32 15 -58z m-2165 -134 c2 -11 -6 -36 -17 -54 -12
-19 -21 -41 -21 -49 0 -8 -9 -26 -20 -40 -22 -28 -25 -67 -9 -124 13 -48 -2
-71 -22 -33 -8 13 -22 39 -33 58 -16 28 -17 39 -8 80 11 45 56 132 90 172 19
22 36 17 40 -10z m36 -31 c8 -26 4 -112 -5 -112 -4 0 -5 -19 -2 -42 4 -40 3
-42 -11 -24 -9 11 -16 28 -16 39 0 10 -5 27 -10 37 -6 11 -6 21 -1 24 5 3 12
26 15 51 7 47 20 58 30 27z m-479 -102 c14 -22 25 -51 25 -64 0 -16 14 -39 35
-60 38 -38 42 -51 21 -63 -21 -12 -56 -93 -56 -129 0 -36 -18 -84 -32 -84 -4
0 -8 -14 -8 -30 0 -19 -9 -40 -24 -55 -28 -28 -103 -68 -115 -61 -12 8 -101
-72 -101 -90 0 -19 -46 -48 -65 -40 -10 3 -15 19 -15 43 0 34 -1 36 -15 17
-14 -19 -14 -19 -15 1 0 11 7 32 14 47 14 26 14 27 -7 24 -12 -3 -25 -5 -29
-5 -5 -1 -8 -15 -8 -32 0 -25 -6 -33 -37 -46 -21 -9 -57 -15 -80 -14 -29 2
-58 -6 -95 -24 -42 -21 -57 -24 -75 -16 -30 14 -29 23 5 43 l27 17 -70 1 c-38
0 -87 3 -109 7 l-39 6 23 17 c23 17 23 17 -29 30 -28 6 -54 17 -57 22 -4 6
-22 16 -41 24 -18 8 -38 25 -43 38 -5 14 -16 28 -24 33 -8 4 -27 26 -41 48
-20 29 -25 43 -18 55 16 24 95 34 181 22 146 -21 347 -58 364 -68 16 -9 59
-66 96 -126 21 -35 35 -35 61 -2 13 16 28 24 42 22 17 -2 24 3 30 25 8 30 53
94 109 158 35 39 169 116 224 128 16 4 31 11 33 16 2 6 -13 33 -32 60 -19 28
-38 58 -41 68 -4 9 -10 17 -15 17 -12 0 -31 39 -24 50 14 22 46 9 70 -30z
m990 -73 c35 -18 95 -84 95 -104 0 -11 -9 -32 -20 -45 -11 -14 -22 -43 -24
-63 -3 -21 -12 -45 -20 -53 -14 -14 -18 -13 -36 11 -12 15 -29 27 -39 27 -9 0
-23 10 -31 21 -59 86 -89 110 -150 124 -45 10 -59 31 -30 45 41 21 118 50 140
53 32 5 89 -3 115 -16z m-337 -94 c15 -30 22 -82 12 -88 -13 -8 -50 54 -50 83
0 26 25 30 38 5z m-443 -43 c21 -16 42 -30 48 -30 16 0 67 -59 67 -78 0 -25
-19 -42 -47 -42 -25 0 -73 -26 -86 -47 -11 -18 -42 -16 -58 3 -19 24 -1 45 54
61 26 7 47 16 47 20 0 3 -20 28 -45 54 -71 76 -56 120 20 59z m-1439 -219 c39
-78 79 -150 87 -159 27 -31 58 -103 67 -155 5 -29 12 -62 16 -74 6 -21 3 -23
-29 -23 -25 0 -41 7 -54 23 -10 12 -48 47 -85 77 -70 55 -72 59 -84 125 -4 22
-16 63 -26 90 -27 68 -29 181 -5 219 10 15 23 26 29 24 6 -2 44 -68 84 -147z
m4494 94 c9 -11 9 -22 -1 -52 -6 -21 -13 -43 -14 -49 -2 -6 -37 -27 -78 -47
-56 -27 -77 -44 -87 -66 -15 -38 -36 -55 -84 -69 -63 -18 -66 -8 -32 85 22 60
84 143 107 143 20 0 39 -28 39 -59 0 -39 20 -21 47 39 16 39 36 66 52 75 33
18 36 18 51 0z m-2020 -23 c0 -15 -75 -78 -113 -95 -45 -20 -47 -20 -47 -5 0
21 48 75 82 91 35 18 78 22 78 9z m-1135 -62 c11 -18 -6 -50 -25 -50 -10 0
-25 9 -33 20 -8 11 -16 17 -20 14 -9 -9 -28 6 -22 17 8 12 92 12 100 -1z
m2619 -136 c-4 -96 -10 -113 -29 -87 -9 11 -10 22 -4 28 12 12 12 102 -1 110
-12 7 -14 58 -3 69 4 4 15 -2 24 -13 14 -17 16 -37 13 -107z m129 74 c33 -37
53 -110 43 -161 -6 -31 -12 -38 -44 -47 -82 -22 -136 -4 -113 38 6 11 12 50
14 85 4 71 26 117 55 117 10 0 30 -14 45 -32z m413 -78 c17 0 27 -8 34 -24 5
-13 29 -38 53 -55 25 -17 47 -38 51 -46 11 -29 7 -53 -10 -59 -19 -7 -90 10
-99 24 -13 22 -21 8 -21 -37 1 -47 0 -48 -32 -51 -27 -3 -32 -7 -27 -23 5 -14
0 -21 -17 -28 -13 -5 -39 -24 -58 -42 -70 -67 -156 -89 -179 -45 -28 51 -13
68 84 103 50 18 100 33 112 33 37 0 36 19 -2 35 -20 8 -49 28 -65 45 -26 28
-27 32 -15 67 8 23 23 43 39 51 14 7 26 19 26 25 0 22 51 46 78 36 13 -5 34
-9 48 -9z m-4210 -83 c39 -22 114 -91 114 -104 0 -25 -38 -13 -64 21 -14 19
-42 42 -63 53 -20 10 -39 24 -41 31 -5 15 26 15 54 -1z m901 -33 c3 -10 -8
-29 -31 -53 -20 -20 -36 -41 -36 -47 0 -16 -106 -104 -125 -104 -21 0 -14 37
21 115 20 46 30 56 76 78 63 30 86 33 95 11z m2269 -130 c-3 -8 -10 -14 -16
-14 -14 0 -13 43 3 59 10 10 13 8 15 -9 2 -12 1 -28 -2 -36z m-3138 24 c2 -12
-3 -18 -15 -18 -10 0 -27 -7 -37 -15 -24 -18 -62 -20 -72 -3 -4 6 5 21 22 35
35 28 97 29 102 1z m4173 -129 c11 -5 17 -14 14 -20 -8 -13 21 -23 37 -12 18
11 100 12 115 0 9 -6 10 -15 3 -27 -8 -15 -19 -17 -62 -13 -29 3 -108 4 -175
4 -69 -1 -123 2 -123 7 0 5 11 7 25 4 19 -3 25 0 25 13 0 13 6 16 26 12 20 -3
27 1 34 19 10 26 46 32 81 13z m-105 -165 c27 -9 56 -23 65 -30 23 -21 47 -17
55 9 4 12 12 25 18 29 15 10 128 10 144 -1 20 -12 42 -59 30 -63 -6 -2 -8 -13
-3 -26 5 -16 10 -20 18 -13 13 10 87 -8 87 -21 0 -5 -8 -16 -17 -25 -13 -13
-17 -31 -15 -65 3 -42 1 -48 -16 -48 -11 0 -23 -8 -26 -17 -6 -14 -9 -15 -15
-4 -9 13 -84 21 -96 10 -14 -15 7 -36 32 -31 25 5 26 3 20 -26 -6 -28 -4 -32
21 -38 35 -9 82 -44 58 -44 -28 0 -18 -17 14 -23 27 -6 43 -27 20 -27 -15 0
-12 -26 4 -39 8 -6 35 -12 61 -13 38 0 48 -4 55 -22 10 -28 36 -50 49 -42 5 4
12 2 16 -4 8 -13 52 -13 60 0 5 8 11 7 21 -1 11 -9 18 -8 30 2 12 10 14 25 10
70 -5 46 -3 61 11 74 26 26 82 13 116 -27 27 -33 48 -40 78 -26 42 19 84 -28
103 -114 12 -53 67 -158 83 -158 11 0 14 6 9 23 -17 60 -27 119 -23 131 5 13
105 66 124 66 6 0 18 -10 26 -23 15 -23 18 -23 92 -14 104 13 124 3 117 -60
-3 -30 -1 -48 8 -53 9 -6 7 -13 -9 -29 -23 -23 -28 -45 -8 -38 6 2 11 10 9 17
-2 8 5 10 22 6 14 -3 27 -2 31 4 3 5 12 7 21 3 8 -3 25 6 40 22 30 32 89 43
117 21 14 -10 19 -29 20 -65 1 -28 4 -46 5 -41 2 6 12 10 22 10 10 0 22 5 25
11 6 8 47 30 65 33 3 1 12 6 20 11 8 5 24 11 35 12 11 2 38 10 60 18 43 15 95
18 163 9 51 -7 56 -16 61 -101 1 -21 6 -23 61 -23 33 0 77 -7 97 -15 22 -9 49
-13 68 -9 24 4 34 2 38 -10 3 -8 24 -20 47 -26 23 -6 43 -17 46 -25 4 -10 19
-4 56 26 33 26 57 38 67 34 9 -4 64 -8 123 -10 96 -4 111 -7 148 -31 40 -26
42 -27 108 -15 37 7 92 15 122 18 30 3 63 12 72 21 16 13 18 13 24 -2 4 -9 20
-24 36 -32 l29 -15 -3 -95 c-2 -70 -6 -93 -15 -89 -7 2 -13 -2 -13 -10 0 -15
48 -57 59 -51 3 2 6 27 6 55 0 41 3 51 15 48 8 -1 14 -10 14 -20 -1 -9 2 -17
7 -17 5 0 9 11 9 24 0 19 7 25 33 30 49 9 74 30 59 48 -9 12 -8 28 4 74 8 32
19 63 24 68 4 4 28 12 52 16 56 11 71 -3 70 -67 l0 -48 18 35 c11 19 19 45 20
57 0 14 5 21 13 18 7 -3 21 11 32 32 11 20 37 54 58 76 l38 40 76 -6 c89 -7
113 -21 65 -39 -30 -12 -32 -16 -32 -59 0 -29 -6 -51 -15 -59 -8 -7 -15 -21
-15 -31 0 -11 -3 -19 -8 -19 -4 0 -19 -11 -34 -25 -45 -42 -138 -96 -174 -102
-26 -4 -38 -1 -48 12 -8 12 -19 16 -31 12 -15 -6 -15 -10 -4 -23 11 -14 10
-19 -10 -35 -24 -19 -24 -19 -43 1 -11 11 -23 18 -29 15 -13 -8 -11 -33 2 -37
6 -2 -8 -12 -32 -23 -51 -22 -170 -97 -215 -136 -18 -14 -81 -51 -140 -82 -60
-30 -138 -71 -174 -91 -72 -40 -95 -44 -104 -19 -4 9 -13 84 -22 167 -20 200
-20 200 -159 248 -60 21 -111 36 -113 33 -8 -8 2 -295 13 -376 l7 -46 -49 -18
c-26 -10 -52 -22 -57 -26 -6 -5 -17 -9 -25 -9 -13 1 -13 2 1 11 10 5 32 30 49
55 24 35 28 49 19 57 -9 9 -15 7 -27 -8 -15 -19 -15 -19 -8 5 5 14 6 54 5 90
-6 104 -5 123 3 155 8 32 5 30 -33 -24 -8 -12 -22 -21 -32 -21 -25 0 -45 -35
-59 -108 -13 -62 -13 -66 19 -150 4 -10 -4 -12 -32 -7 -24 5 -36 3 -36 -4 0
-6 -7 -11 -15 -11 -8 0 -15 4 -15 8 0 5 -11 14 -25 20 -14 7 -25 20 -25 31 0
11 -5 23 -10 26 -7 4 -6 13 1 27 9 18 8 24 -7 35 -21 16 -31 16 -39 3 -3 -5
-12 -10 -20 -10 -23 0 -103 -59 -137 -101 -17 -21 -39 -39 -49 -39 -9 0 -19
-6 -22 -12 -2 -7 -2 12 1 43 3 35 0 59 -7 63 -14 9 -15 46 -1 46 16 0 90 83
90 100 0 9 5 21 12 28 9 9 9 12 -1 12 -7 0 -11 6 -8 14 3 8 0 19 -6 24 -19 14
-56 21 -63 11 -3 -5 -34 -9 -69 -9 -58 0 -64 -2 -67 -22 -6 -39 4 -70 23 -75
23 -6 25 -23 3 -23 -9 0 -33 -13 -54 -30 -21 -16 -42 -30 -48 -30 -5 0 -18
-12 -27 -27 -30 -45 -5 -205 37 -244 10 -9 18 -21 18 -28 0 -6 7 -11 15 -11 9
0 12 -6 9 -15 -4 -8 -1 -15 6 -15 8 0 11 9 7 28 -4 22 -1 29 19 39 13 6 22 7
18 2 -3 -5 0 -9 7 -9 8 0 10 -14 5 -46 -3 -26 -2 -52 3 -58 5 -6 5 -20 0 -31
-7 -19 -8 -19 -8 3 -1 12 -5 22 -11 22 -14 0 -12 -34 2 -48 10 -10 10 -17 0
-32 -6 -11 -12 -27 -12 -35 0 -8 -7 -15 -16 -15 -12 0 -15 -6 -10 -22 3 -13 9
-33 12 -44 4 -17 -5 -30 -43 -60 -26 -22 -52 -45 -56 -51 -4 -7 -18 -13 -31
-13 -13 0 -35 -9 -49 -20 -14 -11 -32 -20 -41 -20 -8 0 -23 -12 -33 -27 -9
-16 -18 -29 -19 -31 -7 -10 -46 23 -55 45 -10 28 5 86 29 112 11 11 13 39 7
125 -8 147 -25 200 -99 327 -72 121 -79 141 -80 224 0 55 20 125 36 125 3 0 4
8 1 19 -2 10 5 37 16 59 15 30 21 60 21 111 0 38 -4 72 -8 75 -14 9 -31 -35
-35 -92 -6 -68 -19 -82 -73 -82 -24 0 -44 -4 -44 -10 0 -5 -9 -10 -20 -10 -15
0 -20 7 -20 29 0 16 -3 31 -7 33 -12 5 -45 74 -43 89 4 27 0 39 -14 39 -20 0
-26 -23 -26 -93 1 -39 6 -69 15 -81 8 -11 15 -35 15 -53 0 -32 -1 -33 -42 -33
-25 0 -64 10 -93 25 -27 13 -67 25 -87 25 -27 0 -42 6 -50 20 -7 11 -17 20
-21 20 -5 0 -26 12 -48 28 -29 20 -42 38 -50 69 -7 24 -16 40 -21 37 -7 -5 -7
-1 -1 11 9 16 7 55 -3 55 -2 0 -19 -7 -38 -16 -33 -16 -35 -16 -64 5 -17 11
-35 21 -40 21 -6 0 -13 13 -17 30 -7 32 -25 51 -25 26 0 -24 -22 -31 -37 -11
-7 11 -13 34 -13 52 0 26 -6 36 -32 49 -17 9 -42 29 -55 44 -13 16 -43 40 -67
54 -26 15 -57 46 -76 75 -17 28 -40 53 -51 56 -10 4 -19 10 -19 14 0 9 -172
184 -253 259 -26 24 -56 42 -69 42 -62 0 -119 73 -85 108 20 20 62 4 72 -28 8
-24 42 -23 36 1 -2 8 -6 22 -8 31 -5 15 6 21 53 27 6 0 33 -6 60 -15z m-3496
-67 c0 -7 -9 -23 -20 -35 -23 -24 -25 -43 -8 -60 9 -9 9 -15 0 -24 -17 -17
-73 11 -91 46 -13 23 -13 29 1 42 8 8 26 16 39 18 13 1 33 7 44 14 26 15 35
15 35 -1z m1322 -65 c18 -18 -24 -35 -155 -63 -218 -46 -249 -59 -220 -91 10
-11 17 -22 16 -24 -2 -2 -3 -13 -3 -24 0 -18 5 -20 43 -16 149 15 185 16 209
9 15 -4 29 -12 30 -18 2 -11 -17 -17 -102 -35 -30 -6 -74 -18 -98 -27 -52 -18
-88 -11 -95 19 -3 13 -13 46 -22 73 -34 105 -36 116 -30 134 9 29 65 51 173
66 101 14 238 13 254 -3z m-1449 -49 c2 -21 0 -47 -6 -57 -9 -19 -10 -19 -28
3 -22 26 -24 44 -9 72 17 31 37 23 43 -18z m995 -43 c12 -12 22 -24 22 -29 0
-13 -43 -47 -75 -60 -39 -15 -81 -48 -73 -56 6 -6 39 9 68 32 26 20 70 27 70
11 0 -8 -6 -20 -12 -27 -11 -11 -10 -13 4 -8 19 7 78 -53 78 -78 0 -8 -24 -26
-52 -40 -29 -13 -74 -44 -99 -67 -25 -24 -75 -64 -111 -90 -70 -49 -103 -91
-162 -201 -33 -62 -36 -76 -36 -147 0 -43 4 -81 10 -85 19 -12 -4 -35 -64 -65
-35 -16 -68 -30 -74 -30 -22 0 -12 26 18 48 40 30 39 45 -4 37 -28 -6 -34 -3
-38 13 -4 14 -18 21 -53 26 l-47 8 7 81 c4 45 14 94 21 109 8 15 14 33 14 41
0 46 145 273 242 382 16 16 28 35 29 40 1 25 237 175 274 175 12 0 31 -9 43
-20z m-548 -194 c-14 -14 -24 0 -16 21 6 15 8 15 16 3 6 -9 5 -19 0 -24z m0
-36 c3 -1 -6 -5 -20 -9 -24 -7 -25 -11 -33 -116 -4 -61 -9 -119 -11 -130 -2
-11 -7 -41 -11 -68 -4 -26 -11 -50 -16 -53 -5 -3 -9 -18 -9 -34 0 -16 -4 -40
-10 -54 -5 -15 -11 -43 -14 -63 -2 -24 -12 -43 -27 -55 -13 -10 -28 -23 -34
-29 -5 -6 -40 -40 -76 -75 -53 -52 -68 -74 -79 -115 -10 -34 -21 -54 -35 -59
-11 -4 -29 -18 -40 -30 l-20 -23 25 7 c14 4 37 10 52 13 26 5 26 4 21 -34 -3
-21 -1 -55 5 -74 9 -33 7 -36 -19 -52 -16 -9 -29 -23 -29 -30 0 -8 -12 -22
-26 -31 l-25 -17 41 -30 c37 -27 40 -32 25 -42 -18 -14 -10 -51 10 -43 18 7
36 -9 30 -26 -5 -13 -103 -68 -165 -92 -8 -3 -30 -15 -49 -27 -18 -11 -41 -17
-50 -14 -12 5 -9 11 17 31 41 32 41 63 2 103 -34 34 -31 55 12 85 12 9 19 18
16 22 -6 6 -62 -20 -88 -41 -8 -6 -33 -22 -55 -36 l-40 -24 25 34 c14 18 39
46 55 62 23 23 27 31 16 38 -10 6 -10 10 -1 16 6 4 9 14 5 22 -3 9 4 31 14 49
l20 34 -22 0 c-12 0 -29 -4 -37 -9 -8 -6 -18 -8 -22 -5 -8 5 41 64 54 64 4 0
30 16 57 35 51 37 71 65 47 65 -8 0 -16 6 -18 12 -3 9 -9 8 -21 -4 -14 -14
-22 -14 -47 -5 -26 10 -30 17 -30 47 0 20 -5 41 -11 47 -9 9 -2 21 26 50 20
21 44 50 52 64 12 20 27 29 57 33 47 8 66 21 66 48 0 10 11 36 25 56 14 20 25
44 25 53 0 21 35 110 66 171 8 14 14 34 14 43 0 10 23 38 50 63 28 25 50 52
50 59 0 8 14 32 32 54 22 28 39 39 58 39 15 0 35 9 45 20 16 18 44 21 75 10z
m3771 -48 c12 -33 -13 -39 -51 -12 -40 29 -38 42 6 38 28 -2 39 -9 45 -26z
m-2788 3 c24 -10 21 -30 -5 -42 -14 -6 -23 -19 -23 -33 0 -33 -45 -62 -104
-68 -67 -6 -101 3 -101 29 0 29 -19 31 -74 10 l-49 -18 32 -11 c18 -6 30 -16
26 -22 -3 -6 2 -18 11 -28 17 -16 18 -16 11 1 -4 11 -2 17 7 17 22 0 24 -10 9
-61 -14 -48 -14 -52 5 -72 11 -12 30 -51 42 -86 18 -51 20 -67 10 -85 -18 -33
-87 -76 -121 -76 l-32 0 5 113 c3 61 9 120 12 129 6 12 -1 21 -24 33 -17 9
-29 22 -27 28 2 7 0 20 -4 29 -5 10 -5 27 1 42 5 14 6 26 1 26 -26 0 -142
-109 -187 -175 -18 -27 -40 -59 -48 -70 -8 -11 -23 -51 -33 -90 -15 -56 -17
-78 -9 -112 15 -57 22 -61 36 -19 6 20 16 36 21 36 6 0 27 -13 47 -29 20 -16
60 -36 89 -46 50 -16 55 -15 127 5 41 11 101 36 132 55 32 19 64 35 72 35 8 0
25 9 39 20 35 27 41 25 45 -12 2 -27 7 -32 23 -30 33 6 55 33 55 67 0 38 30
70 59 62 11 -3 25 1 32 9 16 20 47 17 77 -7 20 -15 35 -19 59 -14 23 4 34 1
40 -10 13 -23 41 -8 48 26 8 35 25 48 25 19 0 -81 -91 -256 -173 -332 -136
-127 -259 -177 -453 -185 l-121 -5 -74 35 c-85 40 -144 84 -174 130 -69 103
-74 114 -76 157 -4 112 43 272 106 355 37 51 47 75 36 88 -12 15 89 127 114
127 9 0 14 4 10 9 -6 11 32 26 56 23 15 -3 58 6 134 28 34 9 231 6 258 -5z
m-1827 -137 c-4 -73 -13 -151 -20 -173 -8 -22 -19 -62 -25 -89 -6 -26 -20 -68
-31 -92 -13 -29 -20 -64 -20 -108 0 -59 -2 -66 -20 -66 -11 0 -26 10 -35 23
-13 21 -14 50 -4 238 l11 214 34 52 c19 28 34 54 34 58 0 14 56 75 69 75 11 0
12 -23 7 -132z m7144 20 c26 -30 28 -35 14 -55 -8 -12 -14 -31 -14 -43 0 -17
-6 -20 -40 -20 -33 0 -40 3 -40 19 0 11 -4 21 -10 23 -5 2 -10 23 -12 48 -3
46 0 49 65 59 4 0 20 -14 37 -31z m1161 7 c16 -9 35 -13 41 -9 7 5 8 2 2 -8
-15 -26 -95 -88 -113 -88 -9 0 -50 -22 -91 -49 -80 -51 -134 -69 -156 -50 -16
13 -19 49 -4 49 6 0 15 11 20 25 5 14 15 25 21 25 6 0 9 7 6 15 -7 16 18 22
129 28 85 5 101 12 81 35 -30 35 -29 42 3 42 17 0 44 -7 61 -15z m-6726 -15
c3 -5 -1 -10 -10 -10 -9 0 -13 5 -10 10 3 6 8 10 10 10 2 0 7 -4 10 -10z m480
-164 l19 -38 -24 -19 c-36 -28 -54 -20 -58 23 -4 41 13 81 31 75 7 -2 21 -20
32 -41z m222 -213 c22 -33 20 -129 -3 -154 -13 -15 -12 -18 10 -33 35 -23 71
-20 89 7 8 12 18 19 21 16 8 -8 -19 -110 -32 -118 -5 -3 -25 -35 -43 -70 -19
-35 -39 -72 -45 -82 -19 -33 -59 -64 -145 -114 -46 -27 -91 -54 -99 -60 -8 -7
-32 -15 -52 -18 -34 -5 -38 -3 -58 30 -24 40 -36 39 -20 -1 20 -53 5 -71 -78
-100 -170 -57 -360 -78 -412 -46 -21 13 58 44 155 60 74 12 231 59 264 79 7 5
11 13 7 19 -7 12 -46 4 -46 -9 0 -5 -13 -9 -29 -9 -17 0 -33 -5 -36 -11 -4 -6
-23 -9 -43 -7 -20 1 -37 -2 -39 -9 -4 -11 -43 -6 -43 6 0 4 5 12 12 19 9 9 8
12 -7 13 -11 1 -29 2 -40 3 -11 1 -42 3 -70 4 -35 2 -46 5 -36 11 12 8 8 11
-15 16 -51 11 -114 47 -114 64 0 4 62 7 138 7 129 -1 143 1 230 32 117 40 130
40 143 2 6 -16 15 -30 20 -30 13 0 11 8 -7 40 -23 37 -15 51 42 80 52 26 241
207 262 250 34 71 80 140 92 140 5 0 17 -12 27 -27z m-2129 -66 c3 -21 0 -26
-12 -21 -19 7 -22 58 -3 52 6 -3 13 -17 15 -31z m32 -106 c-1 -10 -6 -7 -15 9
-19 33 -18 50 0 26 8 -11 15 -27 15 -35z m862 7 c6 -13 13 -28 14 -34 1 -6 14
-29 28 -52 14 -23 26 -46 26 -50 0 -5 16 -29 35 -53 19 -24 30 -46 24 -48 -14
-4 -139 128 -139 147 0 22 -40 62 -61 62 -16 0 -15 3 4 25 27 31 53 32 69 3z
m-247 -38 c-3 -5 -12 -7 -20 -3 -21 7 -19 13 6 13 11 0 18 -4 14 -10z m-1638
-149 c0 -11 -5 -17 -9 -15 -11 7 -10 34 1 34 6 0 9 -9 8 -19z m7178 -81 c-3
-6 5 -14 19 -20 17 -6 24 -14 20 -25 -7 -19 -21 -19 -54 0 -14 8 -37 14 -52
15 -31 0 -34 4 -15 25 14 16 92 21 82 5z m233 -54 c2 -41 -1 -62 -10 -67 -30
-19 -38 -9 -38 45 0 66 7 88 29 84 12 -2 17 -17 19 -62z m-3539 25 c7 -5 11
-13 7 -19 -3 -5 1 -15 9 -22 8 -7 12 -17 9 -22 -4 -5 4 -8 17 -6 28 4 36 -23
45 -152 4 -52 12 -101 18 -109 8 -11 8 -13 -1 -7 -9 5 -13 0 -13 -13 0 -12 -7
-21 -15 -21 -8 0 -15 -4 -15 -10 0 -5 5 -10 10 -10 15 0 50 -38 50 -55 0 -12
-10 -14 -57 -9 l-58 6 30 -26 c17 -14 36 -25 43 -26 7 0 15 -7 19 -16 3 -9 26
-24 50 -35 24 -10 41 -23 38 -29 -3 -5 1 -10 11 -10 18 0 93 -78 94 -98 0 -16
81 -112 94 -112 12 0 95 -90 111 -121 20 -38 94 -102 148 -128 27 -13 51 -30
54 -37 3 -8 11 -14 18 -14 7 0 18 -7 26 -16 10 -13 10 -17 -2 -25 -22 -14 -29
-11 -29 11 0 24 -40 46 -65 36 -12 -4 -15 -13 -11 -31 12 -49 -9 -31 -92 74
-23 30 -52 22 -52 -14 0 -14 -3 -25 -7 -25 -5 1 -33 51 -63 113 -36 72 -63
116 -78 123 -39 19 -72 56 -82 93 -15 52 -73 94 -121 88 -23 -3 -42 0 -50 9
-8 7 -52 32 -98 54 l-84 41 -91 -6 c-72 -5 -113 -15 -196 -47 -58 -22 -114
-47 -125 -54 -11 -8 -25 -14 -31 -14 -15 0 -286 -151 -328 -183 -17 -13 -46
-27 -65 -30 -51 -10 -193 -108 -268 -184 -58 -59 -124 -113 -138 -113 -25 0
-63 -41 -69 -74 -7 -37 -87 -165 -111 -179 -8 -4 -15 -17 -15 -27 0 -10 -4
-22 -10 -25 -14 -9 -48 12 -55 34 -3 11 -19 24 -36 30 -28 10 -33 8 -59 -21
l-29 -31 -20 24 c-18 23 -18 25 -3 44 32 37 47 45 75 40 26 -4 30 -1 44 35 9
22 19 40 23 40 5 0 10 10 14 23 6 27 61 61 83 53 12 -5 13 -9 3 -21 -7 -8 -18
-15 -26 -15 -15 0 -34 -30 -34 -54 0 -27 49 -19 81 14 23 23 28 35 23 55 -5
22 1 33 39 70 25 24 67 53 92 64 25 11 60 35 78 52 17 18 59 55 92 82 33 28
82 72 108 99 27 26 54 48 60 48 18 0 122 53 130 67 4 7 14 13 22 13 7 0 26 12
42 28 16 15 39 34 52 42 75 48 112 84 118 112 5 27 7 28 21 14 10 -10 15 -30
14 -50 -1 -19 2 -37 8 -41 5 -3 10 1 10 9 0 30 32 82 58 94 15 6 44 18 64 26
45 19 54 32 31 45 -16 9 -15 11 7 12 14 1 30 2 37 2 6 0 13 12 17 27 3 15 17
45 31 65 14 21 25 44 25 52 0 18 22 47 138 182 17 21 32 43 32 49 0 7 13 18
30 27 16 8 40 29 52 45 24 33 26 34 47 21z m-1749 -11 c-20 -13 -33 -13 -25 0
3 6 14 10 23 10 15 0 15 -2 2 -10z m-1826 -36 c9 -8 16 -20 16 -25 0 -5 7 -9
15 -9 9 0 19 -8 22 -17 4 -9 23 -33 42 -52 20 -20 43 -52 52 -71 47 -100 61
-138 66 -181 5 -43 3 -48 -21 -64 -40 -27 -52 -15 -58 57 -3 35 -15 86 -27
113 -12 26 -23 59 -26 73 -2 14 -18 38 -35 54 l-32 28 -18 -22 c-12 -14 -20
-41 -21 -68 -3 -60 -5 -72 -14 -93 -4 -10 -1 -27 9 -42 9 -14 14 -25 11 -25
-3 0 2 -14 10 -31 9 -17 14 -33 11 -36 -10 -10 -27 9 -48 53 -24 53 -39 62
-118 75 -50 8 -67 6 -112 -11 -29 -11 -59 -20 -65 -20 -17 0 -17 35 0 52 31
35 97 185 97 223 0 36 43 50 172 53 40 2 61 -3 72 -14z m6473 0 c3 -8 -1 -22
-9 -31 -12 -12 -20 -13 -37 -4 -19 11 -20 12 -4 31 21 24 41 26 50 4z m468
-34 c-3 -5 -11 -10 -16 -10 -6 0 -7 5 -4 10 3 6 11 10 16 10 6 0 7 -4 4 -10z
m-5889 -27 c-10 -10 -19 5 -10 18 6 11 8 11 12 0 2 -7 1 -15 -2 -18z m5564
-29 c0 -8 -13 -34 -29 -57 -15 -23 -42 -73 -59 -112 -36 -83 -61 -104 -97 -85
-14 7 -25 20 -24 29 0 11 2 12 6 4 2 -7 10 -13 17 -13 24 0 48 35 108 155 41
81 78 118 78 79z m-6890 -14 c0 -5 -2 -10 -4 -10 -3 0 -8 5 -11 10 -3 6 -1 10
4 10 6 0 11 -4 11 -10z m7490 -44 c0 -13 -34 -36 -53 -36 -22 1 -22 1 2 20 21
18 51 27 51 16z m-4670 -21 c10 -12 9 -20 -4 -40 -9 -14 -21 -25 -26 -25 -5 0
-17 11 -26 25 -13 20 -14 28 -4 40 7 8 20 15 30 15 10 0 23 -7 30 -15z m-2927
-200 c1 -14 -5 -21 -19 -23 -27 -4 -36 18 -23 60 5 18 10 51 10 73 1 37 3 35
16 -25 8 -36 15 -74 16 -85z m7497 134 c0 -23 -42 -101 -50 -93 -9 9 5 64 23
92 10 15 27 16 27 1z m-6039 -69 c9 -23 17 -30 38 -30 15 0 31 -3 34 -7 13
-12 -16 -33 -45 -33 -17 0 -42 -7 -56 -15 -37 -20 -102 -45 -102 -39 0 3 11
20 25 38 32 42 31 47 -2 44 -47 -5 -41 16 12 43 67 36 84 36 96 -1z m-1246
-20 c3 -5 -2 -11 -12 -12 -10 0 -23 -2 -29 -2 -6 -1 -22 -9 -37 -19 -23 -15
-27 -15 -27 -2 0 8 7 15 15 15 8 0 15 7 15 15 0 17 65 22 75 5z m6795 -24 c0
-7 -13 -30 -30 -51 -16 -21 -30 -45 -30 -54 0 -9 -7 -29 -15 -45 -8 -15 -15
-37 -15 -47 0 -11 -6 -30 -14 -42 -20 -32 -29 -176 -15 -253 12 -70 25 -79 20
-14 -3 47 14 54 23 9 5 -26 8 -29 21 -19 8 6 14 15 13 18 -4 32 27 46 38 18 7
-19 54 3 54 27 0 9 5 17 11 17 6 0 8 -9 4 -20 -5 -16 -2 -20 14 -20 12 0 21 5
21 11 0 6 9 8 20 4 34 -11 41 4 18 35 -19 26 -20 32 -7 62 l14 33 5 -39 c3
-22 11 -41 18 -44 9 -3 12 19 10 94 -3 86 -1 99 14 102 19 4 20 -2 39 -168 7
-58 16 -110 21 -117 12 -16 48 -143 48 -172 0 -20 -4 -22 -25 -17 -21 5 -25 3
-25 -17 0 -14 9 -36 20 -50 11 -14 20 -37 20 -52 0 -25 56 -150 81 -178 44
-54 59 -73 59 -79 0 -4 11 -18 25 -31 15 -13 27 -36 28 -53 2 -20 8 -29 19
-29 32 0 47 -36 48 -110 0 -38 7 -96 15 -128 10 -43 11 -66 3 -88 -7 -22 -7
-48 2 -91 9 -47 9 -79 -1 -148 -10 -71 -10 -92 0 -104 7 -8 10 -24 6 -35 -6
-20 -7 -20 -32 -4 -26 18 -27 18 -19 -7 31 -103 34 -165 10 -191 -13 -14 -13
-20 -2 -38 16 -27 0 -41 -49 -41 -43 0 -63 -9 -56 -26 5 -15 -7 -18 -62 -14
-47 2 -97 23 -130 52 -16 16 -41 28 -55 28 -50 1 -55 11 -56 127 -1 123 -7
172 -29 264 -9 35 -18 79 -21 98 -2 18 -9 41 -14 51 -14 26 -12 207 2 310 7
47 13 130 14 185 0 55 4 111 7 125 3 14 11 48 18 75 6 28 19 59 29 70 15 18
28 53 47 133 7 27 -21 31 -49 5 -14 -13 -21 -14 -30 -5 -17 17 -55 15 -61 -3
-7 -17 6 -27 25 -20 21 8 45 -22 30 -37 -7 -7 -12 -19 -12 -28 0 -20 -46 -73
-78 -89 -36 -19 -166 -71 -177 -71 -5 0 -15 10 -22 23 -47 92 -72 148 -81 182
-6 22 -15 59 -21 81 -16 59 -14 253 3 316 8 29 24 75 35 102 36 83 17 74 -21
-10 -76 -167 -75 -394 1 -574 32 -76 34 -104 6 -94 -9 4 -27 1 -41 -7 -22 -11
-31 -10 -79 16 -30 16 -56 38 -58 47 -3 10 -13 18 -24 18 -14 0 -18 -9 -20
-43 -2 -27 -9 -48 -22 -58 -14 -11 -20 -31 -22 -75 -2 -32 -9 -68 -16 -80 -8
-12 -11 -29 -7 -38 6 -15 -4 -51 -28 -102 -6 -12 -7 -41 -4 -65 10 -61 26
-275 25 -329 -3 -323 -12 -400 -46 -400 -10 0 -13 6 -9 16 4 10 -2 24 -15 35
-26 22 -21 22 -54 9 -23 -9 -30 -7 -45 13 -13 16 -30 24 -54 25 -34 1 -50 -12
-25 -20 13 -4 -43 -68 -60 -68 -6 0 -16 9 -23 19 -9 14 -19 18 -39 14 -34 -7
-109 39 -109 66 0 6 -9 20 -19 30 -19 19 -19 19 -13 -17 8 -42 7 -108 -3 -169
-8 -51 9 -111 32 -109 9 0 18 -5 21 -13 3 -9 0 -11 -8 -6 -13 8 -11 -20 5 -57
5 -13 2 -18 -10 -18 -28 0 -82 63 -96 110 -7 25 -23 57 -35 72 -21 26 -21 29
-8 103 7 43 16 86 19 96 4 11 2 19 -4 19 -6 0 -11 -4 -11 -9 0 -5 -7 -12 -15
-15 -26 -9 -28 20 -6 66 50 104 55 152 56 493 l1 320 28 55 c56 108 117 206
157 250 22 25 51 65 64 90 13 25 41 63 62 86 21 22 53 66 72 97 18 32 37 57
42 57 13 0 24 -23 21 -46 -2 -15 2 -22 14 -20 11 0 28 -21 50 -62 36 -67 82
-132 93 -132 4 0 7 42 7 93 0 119 10 169 32 166 32 -3 42 1 42 16 0 37 50 95
82 95 12 0 36 27 70 80 48 75 87 106 75 60 -8 -32 5 -24 57 36 72 82 176 142
176 100z m462 -40 c-3 -6 -5 -37 -4 -68 3 -53 1 -58 -17 -58 -17 0 -21 7 -22
33 -5 101 12 156 38 121 7 -9 9 -22 5 -28z m-7205 9 c23 -6 69 -62 60 -72 -5
-5 -30 2 -79 22 -37 15 -16 -11 22 -28 29 -12 41 -24 45 -44 4 -16 12 -39 20
-53 7 -14 13 -45 13 -70 -1 -25 0 -67 0 -95 2 -48 2 -49 18 -27 10 15 22 21
34 17 13 -4 22 1 30 15 11 21 12 21 36 -11 13 -18 24 -37 24 -42 0 -15 28 -38
35 -27 3 5 8 78 12 162 6 161 11 182 42 191 36 9 42 -6 48 -134 6 -135 -7
-282 -37 -419 -22 -99 -33 -241 -16 -199 20 47 66 78 66 44 0 -8 9 -23 21 -34
28 -26 39 -80 38 -181 -2 -102 -4 -110 -34 -110 -12 0 -35 -7 -51 -14 -15 -8
-31 -13 -36 -10 -4 3 -13 2 -19 -2 -6 -3 -29 -8 -50 -9 -35 -3 -39 -1 -39 20
0 13 -4 27 -10 30 -13 8 -79 -46 -105 -85 -19 -28 -43 -45 -52 -37 -2 3 1 23
6 46 5 24 6 55 1 71 -5 16 -5 29 -2 29 20 -3 42 2 42 10 0 14 -51 10 -57 -5
-3 -10 -10 -11 -22 -4 -10 5 -27 6 -39 3 -27 -7 -28 8 -4 45 l17 27 -33 -25
c-58 -43 -76 -50 -134 -50 -46 0 -61 4 -79 23 -48 51 -97 195 -113 337 -11 92
49 360 111 495 46 100 122 186 180 202 38 10 49 10 90 -2z m7003 -7 c0 -13
-11 -45 -24 -73 l-24 -50 -1 43 c-1 44 22 102 39 102 6 0 10 -10 10 -22z
m-6150 -13 c0 -8 -4 -15 -10 -15 -5 0 -7 7 -4 15 4 8 8 15 10 15 2 0 4 -7 4
-15z m6010 -8 c0 -14 -12 -32 -30 -45 -36 -27 -35 -27 -38 2 -1 16 7 32 25 45
33 27 43 26 43 -2z m-7170 -1 c0 -7 -7 -19 -15 -26 -13 -11 -15 -8 -15 14 0
16 5 26 15 26 8 0 15 -6 15 -14z m4224 -25 c26 -29 2 -36 -34 -11 -17 12 -30
23 -30 26 0 13 49 1 64 -15z m2626 -11 c0 -5 -5 -10 -11 -10 -5 0 -7 5 -4 10
3 6 8 10 11 10 2 0 4 -4 4 -10z m-4861 -119 c28 -26 51 -55 51 -63 0 -8 11
-29 25 -48 14 -19 25 -40 25 -47 0 -7 5 -13 12 -13 6 0 8 -3 5 -7 -4 -3 0 -15
10 -25 18 -20 20 -92 3 -113 -8 -9 -7 -14 2 -17 10 -4 10 -10 -1 -31 -16 -30
-54 -38 -49 -10 2 13 -10 20 -59 32 -38 9 -63 20 -63 28 0 9 -16 13 -53 13
-48 0 -57 4 -95 39 -33 31 -42 46 -42 73 0 19 -7 43 -15 54 -8 10 -15 35 -15
55 0 29 5 38 25 47 13 6 23 17 20 24 -8 22 19 46 56 51 98 12 105 10 158 -42z
m4471 -10 c13 -32 7 -51 -16 -51 -23 0 -40 46 -24 65 18 22 26 19 40 -14z
m-2130 -17 c0 -8 -4 -12 -10 -9 -5 3 -10 13 -10 21 0 8 5 12 10 9 6 -3 10 -13
10 -21z m1964 -80 c15 -39 0 -56 -33 -35 -8 5 -11 16 -6 30 8 25 30 28 39 5z
m-144 -99 c18 -22 -1 -39 -34 -31 -39 10 -32 42 10 45 6 1 17 -6 24 -14z
m1010 -15 c0 -5 -7 -10 -15 -10 -8 0 -15 5 -15 10 0 6 7 10 15 10 8 0 15 -4
15 -10z m-1176 -47 c4 -9 4 -18 2 -20 -8 -8 -23 6 -29 26 -6 24 18 18 27 -6z
m-4344 -14 c0 -6 14 -30 31 -54 20 -28 29 -50 25 -61 -5 -14 -9 -13 -25 7 -10
13 -22 39 -25 56 -4 18 -12 35 -17 38 -5 4 -9 13 -9 21 0 8 5 12 10 9 6 -3 10
-11 10 -16z m2136 -9 c39 -10 86 -24 105 -32 19 -9 45 -20 59 -26 14 -5 44
-24 67 -40 38 -28 42 -36 49 -89 l7 -57 -52 -47 c-28 -26 -51 -53 -51 -58 0
-6 -4 -11 -9 -11 -5 0 -37 -16 -71 -35 -34 -19 -74 -38 -89 -41 -66 -16 -172
-54 -186 -68 -8 -8 -37 -18 -63 -22 -58 -8 -167 -79 -199 -129 -13 -19 -34
-37 -48 -41 -14 -3 -25 -10 -25 -14 0 -12 -59 -40 -85 -40 -13 0 -27 6 -33 13
-15 17 -5 203 11 234 7 12 25 46 41 75 15 29 39 64 52 79 13 14 24 37 24 52 0
19 5 27 18 27 22 0 42 19 42 38 0 8 14 30 30 49 17 18 30 41 30 49 0 8 13 20
29 25 16 6 42 28 57 51 16 22 40 45 54 50 48 20 125 36 145 30 11 -3 52 -13
91 -22z m774 10 c0 -5 -2 -10 -4 -10 -3 0 -8 5 -11 10 -3 6 -1 10 4 10 6 0 11
-4 11 -10z m50 -25 c16 -8 34 -24 39 -34 9 -15 7 -20 -10 -24 -24 -6 -69 32
-69 58 0 19 4 19 40 0z m1234 -36 c-3 -5 -10 -7 -15 -3 -5 3 -7 10 -3 15 3 5
10 7 15 3 5 -3 7 -10 3 -15z m-3044 -8 c0 -5 -6 -14 -14 -20 -11 -9 -16 -9
-21 0 -4 6 -1 15 6 20 18 11 29 11 29 0z m2134 -113 c37 -43 41 -54 28 -76 -9
-13 -18 -6 -76 58 -22 24 -35 30 -52 26 -12 -3 -26 -2 -29 4 -3 5 3 10 14 10
11 0 23 5 26 10 14 23 54 9 89 -32z m656 -38 c0 -36 -9 -50 -80 -130 -44 -50
-94 -103 -111 -117 -17 -15 -41 -43 -54 -62 -28 -45 -135 -161 -148 -161 -5 0
-4 7 3 14 6 8 10 25 8 38 -4 31 -130 78 -160 59 -11 -7 -21 -11 -22 -9 -1 2
-8 21 -15 43 -8 22 -31 69 -52 104 -22 34 -39 67 -39 72 0 5 -15 15 -32 22
-18 8 -41 23 -51 34 -21 24 -39 81 -28 88 11 6 44 -32 65 -72 20 -39 48 -57
64 -41 7 7 12 18 12 26 0 28 25 4 28 -26 2 -18 13 -42 26 -55 12 -12 33 -46
47 -74 17 -36 32 -55 52 -62 15 -6 34 -17 42 -25 9 -9 29 -13 50 -11 25 2 35
-1 35 -11 0 -8 4 -14 9 -14 14 0 61 48 61 64 0 8 9 17 19 21 11 3 26 19 33 35
7 17 16 30 20 30 5 0 8 7 8 15 0 8 8 19 19 24 18 10 26 57 11 66 -4 3 10 24
32 47 36 39 40 42 52 26 12 -17 14 -17 30 0 9 10 16 24 16 31 0 22 20 51 35
51 11 0 15 -12 15 -40z m-3010 -19 c-6 -12 -15 -21 -20 -21 -6 0 -10 -6 -10
-14 0 -20 -24 -36 -39 -27 -16 10 -6 31 14 31 7 0 23 14 35 31 24 33 38 33 20
0z m3270 -30 c0 -5 -11 -16 -25 -25 -30 -20 -33 -40 -5 -33 18 5 19 1 14 -42
-6 -49 -20 -92 -55 -167 -19 -39 -20 -50 -10 -66 7 -12 8 -17 2 -13 -7 4 -11
-9 -11 -39 0 -57 -17 -144 -35 -176 -8 -15 -16 -78 -20 -161 -7 -127 -6 -139
15 -185 14 -31 25 -83 30 -142 10 -113 -1 -148 -54 -176 -20 -11 -36 -24 -36
-30 -1 -6 -16 -20 -33 -32 -33 -20 -34 -20 -69 -2 -50 26 -52 45 -36 347 3 53
0 75 -9 78 -17 6 -17 34 -1 30 7 -1 14 8 16 20 l3 23 25 -25 c32 -32 38 -31
64 5 12 17 17 30 12 30 -27 0 -38 221 -18 365 2 17 4 39 5 51 1 23 33 64 109
141 48 49 65 83 43 83 -11 0 -211 -202 -224 -226 -5 -11 -15 -23 -21 -29 -38
-32 -124 -207 -153 -312 -14 -51 -13 -54 17 -130 21 -51 30 -89 27 -112 -3
-32 -5 -33 -12 -13 -4 12 -11 22 -16 22 -12 0 -11 -27 2 -73 6 -21 14 -78 19
-125 11 -108 34 -246 49 -292 17 -53 -2 -56 -46 -6 -43 48 -45 62 -59 291 -5
101 -35 301 -49 333 -17 37 -24 39 -51 14 -28 -26 -48 -21 -54 13 -8 43 -23
14 -22 -41 1 -47 -10 -55 -49 -33 -16 8 -26 7 -44 -5 -14 -9 -35 -16 -47 -16
-13 0 -31 -7 -41 -15 -11 -7 -36 -17 -58 -20 -21 -4 -41 -11 -44 -16 -3 -4
-26 -17 -50 -28 -39 -17 -45 -24 -45 -50 0 -34 -16 -40 -35 -14 -11 14 -13 13
-19 -10 -7 -28 -20 -35 -31 -17 -10 17 -53 11 -108 -13 -29 -13 -72 -32 -97
-41 -25 -10 -52 -22 -60 -26 -9 -4 -31 -11 -50 -15 -18 -4 -65 -27 -104 -51
-39 -24 -78 -44 -87 -44 -9 0 -22 -7 -29 -15 -7 -8 -27 -17 -46 -21 -19 -3
-34 -10 -34 -15 0 -5 -8 -9 -18 -9 -10 0 -27 -6 -38 -14 -10 -8 -29 -12 -41
-9 -15 3 -25 0 -29 -11 -3 -9 -13 -16 -21 -16 -8 0 -21 -7 -29 -15 -10 -9 -24
-13 -40 -9 -14 4 -24 2 -24 -4 0 -6 -13 -13 -29 -17 -16 -3 -32 -12 -35 -20
-3 -8 -22 -24 -43 -35 -21 -12 -49 -27 -63 -35 -14 -8 -63 -33 -110 -55 -47
-23 -119 -61 -160 -85 -41 -23 -97 -55 -125 -70 -54 -30 -85 -53 -85 -66 0
-13 112 -3 150 13 93 40 206 65 150 33 -14 -8 -31 -14 -39 -15 -8 0 -28 -10
-45 -23 -58 -43 -136 -68 -193 -61 -40 5 -51 3 -56 -10 -4 -9 -15 -16 -26 -16
-11 0 -21 -5 -23 -12 -3 -8 -11 -7 -27 4 -13 9 -30 14 -37 11 -18 -7 -18 -38
0 -55 7 -8 17 -24 21 -37 14 -44 -27 -18 -62 39 -18 30 -37 56 -43 58 -16 6
-57 -32 -53 -48 3 -10 2 -11 -4 -4 -4 6 -27 13 -50 16 -41 3 -43 2 -43 -24 0
-33 -13 -43 -30 -23 -16 19 -41 20 -34 0 4 -10 -3 -16 -23 -20 -15 -3 -35 -8
-43 -10 -8 -2 -53 -19 -100 -39 -46 -20 -94 -36 -107 -36 -12 0 -26 -6 -30
-14 -9 -16 -99 -66 -120 -66 -17 0 -110 -46 -117 -59 -4 -5 -21 -13 -39 -17
-17 -3 -42 -15 -55 -25 -13 -10 -36 -21 -52 -24 -34 -8 -40 -34 -10 -42 11 -3
20 -9 20 -14 0 -19 -29 -20 -61 -4 -31 16 -32 16 -24 -1 4 -11 10 -28 13 -39
9 -34 -56 33 -90 93 -16 28 -32 52 -35 52 -3 0 -3 -16 0 -35 4 -24 2 -35 -6
-35 -27 1 -50 32 -62 82 -12 51 -13 52 -20 24 -5 -17 -4 -47 2 -68 6 -21 7
-41 2 -43 -10 -7 -47 32 -55 57 -4 15 -12 17 -47 12 -23 -3 -54 -15 -69 -25
-25 -17 -78 -27 -78 -14 0 3 17 20 37 38 102 89 111 103 65 102 -25 0 -27 2
-24 39 3 29 0 37 -10 34 -8 -3 -14 -25 -16 -58 -5 -86 -29 -100 -84 -50 l-33
29 23 17 c13 9 22 25 21 37 0 12 0 25 1 30 4 13 7 27 9 38 0 5 6 7 11 4 23
-14 7 18 -20 42 -33 27 -38 43 -15 43 8 0 24 9 35 20 20 20 20 20 -10 47 -19
17 -28 33 -25 43 4 12 -3 21 -22 29 -19 8 -35 27 -48 58 -11 25 -31 52 -43 61
-13 9 -28 26 -33 40 -7 19 -15 23 -34 20 -14 -3 -25 -1 -25 4 0 25 -44 109
-55 104 -9 -3 -14 15 -19 59 -6 58 -20 106 -47 160 -5 11 -10 38 -10 60 -1
115 2 152 10 170 5 11 16 40 25 65 9 25 34 66 56 91 68 79 146 108 290 105 47
0 102 2 122 5 53 9 146 -10 190 -38 21 -13 38 -27 38 -32 0 -5 17 -20 38 -32
20 -13 50 -37 66 -54 18 -18 31 -25 33 -18 2 7 11 9 20 6 11 -4 14 -2 9 5 -4
7 -2 12 4 12 6 0 13 -6 16 -14 9 -24 31 -8 69 49 45 68 53 73 66 38 10 -27 11
-27 25 -9 8 11 14 35 14 54 l0 35 21 -27 c20 -25 25 -26 116 -26 99 0 133 12
133 47 0 32 30 72 59 78 17 3 42 15 56 27 14 11 38 23 53 27 21 6 26 13 24 31
-1 13 -9 31 -16 39 -19 21 -31 87 -17 95 5 4 15 -2 21 -13 6 -11 43 -54 83
-94 61 -63 81 -77 129 -91 31 -9 66 -16 78 -16 12 0 30 -5 42 -11 11 -6 58
-13 105 -15 81 -4 113 -14 113 -36 0 -5 -8 -7 -19 -3 -23 7 -73 -14 -68 -29 5
-16 183 -53 195 -41 12 12 -17 26 -54 28 -36 1 -39 4 -38 27 1 22 6 25 42 28
32 2 43 -1 51 -16 7 -14 26 -21 63 -26 59 -8 75 -15 58 -26 -17 -11 -2 -50 19
-50 9 0 25 -6 35 -13 17 -12 14 -14 -25 -15 -24 -1 -51 1 -61 4 -20 6 -25 34
-6 34 6 0 9 3 6 6 -4 3 -20 -2 -36 -10 -23 -12 -31 -13 -35 -3 -3 9 -7 9 -19
0 -19 -16 -87 -18 -199 -6 -74 8 -95 15 -140 45 -91 60 -116 69 -157 62 -57
-10 -74 -23 -31 -24 48 0 139 -30 139 -45 0 -8 -48 -11 -174 -11 -96 1 -177 4
-180 7 -9 9 -126 1 -166 -11 -19 -5 -58 -10 -86 -10 -70 0 -78 -8 -134 -137
-13 -29 -29 -54 -37 -57 -11 -5 -11 -9 -1 -25 10 -17 8 -29 -14 -78 -34 -74
-63 -158 -72 -204 -4 -21 -13 -42 -21 -49 -9 -8 -15 -30 -15 -57 0 -24 -9 -63
-19 -86 -11 -23 -22 -69 -26 -102 -4 -33 -12 -68 -17 -78 -7 -14 -3 -21 22
-35 16 -9 33 -25 36 -35 4 -14 11 -17 27 -12 38 13 86 13 95 1 5 -6 12 -34 15
-63 5 -47 4 -54 -19 -72 -33 -26 -30 -30 14 -21 56 11 120 37 149 60 14 11 34
20 44 20 10 0 34 9 54 20 20 11 46 20 58 20 13 0 28 5 35 12 9 9 13 8 17 -5 8
-20 35 -11 35 12 0 9 20 25 50 39 28 12 50 27 50 32 0 6 6 10 13 10 6 0 20 14
29 30 18 31 37 40 39 18 1 -7 2 -17 4 -23 1 -5 3 -17 4 -25 1 -11 7 -8 21 10
11 14 20 29 20 35 0 16 63 75 81 75 9 0 22 7 29 15 15 18 32 19 48 3 16 -16
123 -10 143 8 8 8 30 14 47 14 17 0 34 5 37 10 3 6 -1 10 -9 10 -24 0 -31 22
-11 37 11 7 34 13 53 13 l35 0 -19 -22 -19 -21 30 6 c17 4 41 10 54 13 16 5
22 4 17 -4 -10 -17 8 -22 35 -9 13 7 51 24 84 37 33 13 65 26 70 30 6 4 28 13
50 20 35 12 113 46 157 71 10 5 27 9 37 9 11 0 23 4 26 10 7 11 82 46 160 76
28 10 85 35 128 56 43 21 82 38 87 38 17 0 302 133 328 153 9 7 9 13 2 22 -8
10 -3 17 21 29 18 9 37 16 43 16 6 0 37 25 69 55 32 30 60 55 62 55 3 0 5 -11
5 -24 0 -37 17 -41 37 -8 10 16 23 27 29 25 6 -2 19 8 29 23 15 23 22 26 57
21 33 -4 53 1 107 28 36 19 81 40 99 47 23 9 35 23 43 48 16 49 28 59 44 36 8
-10 16 -24 18 -30 3 -7 11 -5 24 7 11 9 26 17 35 17 17 0 38 23 56 60 7 14 32
52 57 85 25 33 56 76 69 95 13 19 74 85 136 145 61 61 131 140 156 177 24 37
54 74 66 82 24 17 58 21 58 7z m-1456 -156 c-1 -27 -6 -67 -10 -88 -6 -37 -6
-38 21 -31 27 7 97 -10 125 -30 26 -19 59 -36 69 -36 6 0 16 18 22 40 15 51
35 51 44 2 7 -43 -18 -192 -41 -249 -10 -23 -13 -49 -9 -74 8 -44 -13 -56 -30
-17 -7 15 -29 28 -70 40 -151 46 -172 53 -195 65 -14 7 -40 16 -58 19 -40 8
-49 20 -28 43 9 10 16 21 16 26 0 4 11 32 25 62 14 29 24 57 21 61 -4 6 11 54
37 122 3 8 11 33 18 55 25 84 50 79 43 -10z m756 -2 c0 -24 -25 -9 -28 17 -3
21 -2 22 12 11 9 -7 16 -20 16 -28z m-2895 7 c3 -5 -1 -10 -10 -10 -9 0 -13 5
-10 10 3 6 8 10 10 10 2 0 7 -4 10 -10z m2989 -6 c3 -8 2 -12 -4 -9 -6 3 -10
10 -10 16 0 14 7 11 14 -7z m-44 -14 c0 -5 -7 -10 -15 -10 -8 0 -15 5 -15 10
0 6 7 10 15 10 8 0 15 -4 15 -10z m-3030 -60 c0 -5 -2 -10 -4 -10 -3 0 -8 5
-11 10 -3 6 -1 10 4 10 6 0 11 -4 11 -10z m6988 -13 c32 -34 84 -141 70 -146
-14 -5 -38 27 -38 50 0 10 -11 26 -25 37 -14 11 -25 24 -25 30 0 14 -24 22
-49 15 -25 -6 -27 0 -5 21 22 22 47 20 72 -7z m-9095 -81 c18 -14 22 -26 10
-26 -5 0 -19 9 -33 20 -16 13 -20 20 -10 19 8 0 23 -6 33 -13z m2107 -56 c0
-13 -7 -20 -19 -20 -11 0 -22 -4 -25 -9 -8 -12 -63 -22 -82 -14 -27 10 13 33
58 33 27 0 38 4 38 15 0 8 7 15 15 15 8 0 15 -9 15 -20z m6583 0 c6 -24 -8
-36 -17 -14 -8 22 -7 34 3 34 5 0 11 -9 14 -20z m-6835 -58 c2 -7 -6 -12 -17
-12 -21 0 -27 11 -14 24 9 9 26 2 31 -12z m-444 -1 c3 -5 -1 -12 -10 -15 -23
-9 -54 -7 -54 3 0 18 54 28 64 12z m346 -16 c0 -8 -12 -17 -27 -21 -16 -3 -37
-8 -48 -11 -21 -6 -95 -79 -95 -94 0 -15 -100 -57 -150 -63 -25 -3 -81 -10
-125 -14 -44 -5 -91 -14 -104 -21 -19 -11 -26 -10 -38 2 -14 13 -13 18 3 41
11 14 24 26 31 26 16 0 82 43 109 71 12 12 27 19 32 15 16 -10 167 10 200 27
17 8 43 12 58 9 17 -3 31 0 38 9 25 31 116 50 116 24z m2342 -152 c16 -7 27
-19 25 -26 -1 -8 23 -13 83 -17 82 -5 84 -5 51 -17 -19 -7 -40 -13 -48 -13 -8
0 -42 -13 -76 -28 -34 -16 -84 -36 -112 -45 -27 -10 -88 -39 -135 -67 -84 -49
-138 -68 -159 -55 -6 3 -11 33 -11 67 0 51 -3 61 -19 65 -23 6 -17 33 6 33 9
0 30 9 47 19 37 23 143 64 209 81 26 7 50 17 53 21 6 11 48 2 86 -18z m-3834
-51 c3 -16 -2 -22 -16 -22 -19 0 -36 32 -24 45 13 12 37 -1 40 -23z m2170 -14
c-6 -18 -28 -21 -28 -4 0 9 7 16 16 16 9 0 14 -5 12 -12z m6242 -26 c0 -13
-12 -22 -22 -16 -10 6 -1 24 13 24 5 0 9 -4 9 -8z m72 -24 c2 -13 13 -27 26
-33 28 -12 28 -19 -5 -66 -30 -42 -73 -54 -73 -21 0 11 -7 7 -21 -15 -12 -18
-27 -33 -35 -33 -17 0 -19 47 -2 52 6 2 8 10 4 16 -8 13 -28 17 -23 4 3 -9
-64 -74 -71 -68 -6 7 21 66 31 66 4 0 12 11 17 25 10 25 34 33 45 15 10 -17
25 -11 25 10 0 10 9 24 20 30 11 6 20 17 20 25 0 25 38 18 42 -7z m-87 -18
c-3 -5 -11 -10 -16 -10 -6 0 -7 5 -4 10 3 6 11 10 16 10 6 0 7 -4 4 -10z
m-5061 -7 c-5 -5 -12 -12 -16 -18 -4 -6 -8 -2 -8 8 0 9 7 17 17 17 9 0 12 -3
7 -7z m456 -28 c0 -8 -7 -15 -16 -15 -14 0 -14 3 -4 15 7 8 14 15 16 15 2 0 4
-7 4 -15z m-487 -22 c-13 -2 -35 -2 -50 0 -16 2 -5 4 22 4 28 0 40 -2 28 -4z
m-2479 -11 c3 -5 -4 -21 -15 -38 -10 -16 -19 -44 -19 -61 0 -38 -37 -120 -58
-128 -26 -10 -35 10 -22 52 41 127 93 208 114 175z m3486 -25 c0 -7 -17 -21
-37 -32 -21 -11 -45 -27 -54 -37 -10 -9 -37 -26 -61 -37 -23 -12 -79 -39 -123
-62 -128 -66 -155 -79 -165 -79 -5 0 -61 -25 -124 -56 -64 -31 -123 -54 -131
-52 -10 2 7 15 42 32 86 44 143 72 188 94 22 11 72 36 110 55 78 40 130 66
190 93 22 11 46 26 55 34 55 54 110 77 110 47z m2292 -127 c3 -16 1 -35 -4
-42 -4 -8 -8 4 -8 30 0 49 6 55 12 12z m-4157 -38 c68 -25 157 -94 184 -142
12 -22 26 -40 32 -40 5 0 9 -8 9 -18 0 -23 19 -42 41 -42 24 0 104 -74 95 -88
-11 -18 -31 -15 -84 12 -26 13 -76 31 -112 40 -36 9 -66 21 -68 26 -2 6 -16
10 -30 10 -20 0 -23 -3 -13 -9 11 -7 4 -12 -27 -22 -23 -6 -40 -17 -39 -23 1
-6 -14 -12 -34 -14 -30 -3 -41 3 -72 35 -21 20 -37 43 -37 50 0 8 -12 13 -29
13 -43 0 -45 14 -7 48 24 21 33 36 30 49 -3 11 1 25 9 32 8 6 13 21 10 31 -3
11 1 27 8 36 12 14 14 14 26 -2 7 -10 13 -13 13 -7 0 13 27 43 38 43 4 0 30
-8 57 -18z m1710 -15 c-31 -21 -87 -47 -101 -47 -8 0 -22 -7 -33 -16 -10 -9
-47 -27 -82 -41 -35 -13 -77 -30 -94 -38 -79 -37 -145 -63 -171 -67 -16 -3
-23 -3 -16 -1 6 3 12 9 12 14 0 5 5 9 12 9 7 0 62 24 123 54 60 30 126 57 145
61 19 3 71 24 115 45 80 39 129 53 90 27z m2412 -9 c35 -39 44 -63 29 -83 -7
-10 -18 -16 -26 -13 -11 3 -50 90 -50 111 0 15 27 6 47 -15z m-3160 -33 c17
-14 21 -25 16 -44 -9 -37 -19 -41 -113 -41 -86 0 -110 8 -110 38 0 14 39 50
69 64 29 14 115 3 138 -17z m4142 -130 c16 -35 21 -64 21 -131 0 -83 -1 -85
-22 -82 -21 3 -23 8 -20 48 5 86 3 133 -8 144 -12 12 -13 66 -1 66 5 0 18 -20
30 -45z m-4162 19 c19 -5 23 -12 21 -33 -3 -22 -18 -33 -98 -73 -52 -26 -100
-48 -107 -48 -17 0 -32 32 -39 82 -6 46 3 62 41 70 31 7 156 8 182 2z m-299
-37 c6 -5 16 -6 22 -2 5 3 17 -6 26 -20 13 -20 14 -28 4 -39 -6 -8 -18 -12
-26 -9 -10 4 -14 -2 -14 -20 0 -14 -3 -32 -6 -41 -8 -20 -40 -21 -51 -2 -4 8
-23 16 -42 18 -46 4 -48 19 -12 60 17 18 37 41 45 50 15 17 31 18 54 5z m529
-43 c-3 -3 -12 -4 -19 -1 -8 3 -5 6 6 6 11 1 17 -2 13 -5z m-1469 -16 c16 -16
15 -28 -3 -28 -8 0 -15 2 -15 4 0 2 -3 11 -6 20 -7 19 7 21 24 4z m1292 -8 c0
-5 -7 -10 -16 -10 -8 0 -12 5 -9 10 3 6 10 10 16 10 5 0 9 -4 9 -10z m750 -9
c0 -10 -61 -34 -68 -27 -4 5 47 35 61 36 4 0 7 -4 7 -9z m-904 -66 c-11 -8
-29 -15 -40 -15 -19 1 -19 2 4 15 35 20 62 19 36 0z m-807 -45 c23 -17 44 -36
46 -43 2 -7 12 -40 23 -75 l19 -62 -22 -6 c-13 -3 -33 0 -45 6 -12 6 -59 12
-103 13 l-82 2 -3 73 c-3 77 4 97 43 112 41 17 82 10 124 -20z m711 5 c-7 -8
-19 -15 -26 -15 -8 0 -14 -4 -14 -10 0 -5 -11 -10 -25 -10 -35 0 -31 19 5 27
17 3 33 10 36 14 3 5 12 9 21 9 13 0 13 -3 3 -15z m2004 -51 c50 -57 54 -75
12 -56 -22 10 -83 112 -66 112 3 0 28 -25 54 -56z m2988 14 c-7 -7 -12 -8 -12
-2 0 14 12 26 19 19 2 -3 -1 -11 -7 -17z m-4374 -26 c2 -7 -1 -12 -7 -12 -6 0
-30 -13 -53 -30 -25 -18 -53 -30 -72 -30 -18 0 -49 -9 -71 -20 -22 -11 -45
-20 -53 -20 -7 0 -27 -7 -43 -16 -17 -8 -33 -13 -36 -10 -8 8 17 36 33 36 19
0 145 59 166 77 17 15 105 43 122 39 6 -1 12 -8 14 -14z m-398 -163 c0 -9 -37
-28 -87 -43 -42 -13 -24 10 25 32 55 24 62 26 62 11z m4359 -95 c24 -8 -15
-41 -62 -52 -56 -15 -67 -1 -30 37 30 29 40 31 92 15z m-4524 -74 c-3 -5 -11
-10 -16 -10 -5 0 -42 -16 -82 -35 -83 -41 -77 -39 -77 -21 0 7 21 21 48 30 26
10 56 21 67 26 49 21 69 24 60 10z m-1091 -15 c-4 -8 -13 -15 -21 -15 -13 0
-13 3 -3 15 7 8 16 15 21 15 5 0 6 -7 3 -15z m76 5 c0 -5 -4 -10 -10 -10 -5 0
-10 5 -10 10 0 6 5 10 10 10 6 0 10 -4 10 -10z m-115 -40 c-3 -5 -12 -7 -20
-3 -21 7 -19 13 6 13 11 0 18 -4 14 -10z m5751 -99 c-34 -33 -36 -7 -4 35 20
25 23 26 26 10 2 -10 -8 -30 -22 -45z m-5906 35 c0 -3 -4 -8 -10 -11 -5 -3
-10 -1 -10 4 0 6 5 11 10 11 6 0 10 -2 10 -4z m6174 -157 c-24 -27 -28 -17 -7
20 13 21 19 26 21 15 2 -8 -4 -24 -14 -35z m-408 10 c11 -18 -19 -38 -69 -45
-52 -7 -68 11 -19 22 15 4 36 13 47 20 24 17 32 17 41 3z m-1186 -68 c0 -5
-33 -26 -72 -46 -40 -21 -77 -41 -82 -46 -15 -14 -46 -11 -40 4 7 18 80 70
117 84 39 14 77 16 77 4z m768 -8 c-2 -9 -23 -27 -48 -40 -24 -13 -47 -27 -50
-32 -9 -13 -99 -55 -106 -49 -7 7 16 31 76 79 71 56 135 77 128 42z m-5120
-165 c2 -43 -1 -57 -12 -61 -31 -12 -48 64 -24 103 20 32 33 17 36 -42z m4820
35 c-2 -12 -11 -17 -23 -15 -25 5 -29 8 -20 21 11 19 47 13 43 -6z m-4550 -1
c20 -13 5 -36 -43 -62 -24 -13 -43 -28 -42 -34 1 -5 -16 -15 -37 -21 -26 -8
-45 -21 -56 -41 -9 -16 -33 -47 -53 -69 -37 -39 -38 -42 -35 -105 3 -55 6 -66
24 -74 30 -14 56 -62 40 -75 -9 -8 -19 -4 -35 15 -22 26 -26 26 -96 20 -69 -6
-73 -6 -89 18 -9 14 -16 39 -16 55 0 38 -16 48 -42 24 -27 -24 -40 -60 -29
-81 5 -9 16 -34 25 -56 l17 -39 -31 29 c-16 16 -30 34 -30 40 0 6 -7 17 -15
24 -21 17 -19 53 5 83 11 14 20 28 20 32 0 25 51 70 113 99 124 57 166 76 173
76 4 0 29 21 55 47 26 26 72 59 101 75 59 31 58 31 76 20z m-1288 -12 c0 -5
-9 -10 -20 -10 -11 0 -20 5 -20 10 0 6 9 10 20 10 11 0 20 -4 20 -10z m5767 4
c-3 -3 -12 -4 -19 -1 -8 3 -5 6 6 6 11 1 17 -2 13 -5z m-4822 -35 c-8 -12 -35
-12 -35 0 0 11 22 20 33 14 4 -2 5 -9 2 -14z m707 -32 c71 -65 60 -176 -29
-295 -25 -34 -50 -62 -54 -62 -13 0 -11 44 3 58 6 6 11 25 10 41 0 20 3 28 12
25 20 -8 33 16 40 71 3 28 9 65 12 83 6 30 3 37 -30 64 -20 16 -36 34 -36 39
0 20 38 7 72 -24z m-1002 -99 c0 -18 -92 -68 -123 -68 -14 0 -29 -4 -32 -10
-3 -5 -13 -10 -21 -10 -20 0 -51 -38 -59 -71 -3 -15 -24 -40 -48 -57 -79 -59
-92 -73 -78 -81 9 -6 3 -14 -22 -30 -19 -11 -41 -21 -50 -21 -24 0 -31 19 -13
39 9 9 21 33 27 52 6 19 33 55 62 81 45 41 49 48 29 48 -25 0 -108 -79 -123
-117 -11 -29 -49 -32 -49 -4 0 26 78 130 123 164 54 41 127 69 164 64 21 -4
33 -1 37 8 3 10 28 15 78 18 40 1 79 4 86 5 6 1 12 -4 12 -10z m130 -3 c0 -9
-28 -50 -62 -93 -35 -42 -70 -90 -78 -106 -22 -43 -45 -47 -37 -7 8 38 -2 39
-33 6 -25 -27 -50 -33 -50 -12 0 18 32 65 79 117 33 37 42 42 51 30 8 -13 15
-9 42 22 47 52 88 72 88 43z m-1310 -65 c0 -5 -2 -10 -4 -10 -3 0 -8 5 -11 10
-3 6 -1 10 4 10 6 0 11 -4 11 -10z m2329 -5 c31 -15 62 -61 79 -116 13 -40 22
-139 13 -139 -4 0 -12 -13 -18 -30 -12 -33 -33 -39 -53 -15 -9 11 -11 33 -5
83 4 37 7 82 7 101 -1 39 -31 101 -48 101 -7 0 -14 7 -18 15 -7 19 7 19 43 0z
m-1353 -182 c20 -27 16 -38 -6 -18 -20 18 -26 35 -14 35 4 0 13 -8 20 -17z
m1532 -107 c22 -24 48 -58 57 -76 21 -41 21 -136 0 -186 -8 -20 -15 -47 -15
-59 0 -12 -7 -28 -15 -35 -8 -7 -15 -23 -15 -37 0 -18 -5 -24 -17 -21 -36 7
-139 248 -106 248 5 0 20 -22 32 -49 13 -27 33 -61 46 -77 18 -23 25 -26 37
-16 13 10 13 23 2 89 -19 121 -35 170 -67 215 -20 27 -16 48 7 48 8 0 32 -20
54 -44z m-1559 21 c6 -8 16 -36 22 -63 10 -45 9 -53 -16 -107 -32 -66 -65 -97
-106 -97 -27 0 -36 11 -28 35 1 6 3 42 4 82 2 54 7 76 20 90 13 13 20 14 23 5
7 -21 22 -13 22 12 0 24 23 56 39 56 5 0 13 -6 20 -13z m3276 -17 c3 -5 -1
-10 -10 -10 -9 0 -13 5 -10 10 3 6 8 10 10 10 2 0 7 -4 10 -10z m72 -32 c-3
-8 -6 -5 -6 6 -1 11 2 17 5 13 3 -3 4 -12 1 -19z m-4047 4 c0 -5 -14 -21 -30
-37 -23 -22 -33 -26 -42 -17 -17 17 16 62 47 62 14 0 25 -4 25 -8z m4570 -2
c0 -5 -11 -10 -25 -10 -14 0 -25 5 -25 10 0 6 11 10 25 10 14 0 25 -4 25 -10z
m-4075 -29 c3 -5 -6 -26 -20 -47 -30 -44 -33 -96 -7 -139 10 -16 21 -38 25
-47 11 -31 -41 1 -63 39 -16 27 -25 33 -54 33 -73 0 -59 51 31 119 70 53 78
57 88 42z m3520 -11 c-3 -5 -11 -10 -16 -10 -6 0 -7 5 -4 10 3 6 11 10 16 10
6 0 7 -4 4 -10z m-322 -47 c-7 -2 -21 -2 -30 0 -10 3 -4 5 12 5 17 0 24 -2 18
-5z m-3858 -13 c3 -5 2 -10 -4 -10 -5 0 -13 5 -16 10 -3 6 -2 10 4 10 5 0 13
-4 16 -10z m-350 -79 c83 -31 70 -48 -40 -52 -109 -4 -108 -4 -72 36 37 40 45
41 112 16z m675 -36 c0 -17 -27 -32 -37 -21 -4 3 2 13 13 21 24 18 24 18 24 0z
m-871 -11 c2 -2 -12 -4 -33 -4 -22 0 -35 4 -31 10 5 9 52 4 64 -6z m-41 -51
c5 -17 -26 -29 -40 -15 -6 6 -7 15 -3 22 9 14 37 9 43 -7z m613 -16 c-5 -5
-17 -7 -26 -3 -14 5 -15 9 -5 21 10 12 16 13 27 4 9 -8 10 -16 4 -22z m-703 1
c3 -15 -4 -18 -37 -18 -39 0 -53 14 -34 34 14 14 68 1 71 -16z m232 6 c0 -15
-20 -17 -69 -8 -48 10 -37 23 19 22 36 0 50 -4 50 -14z m67 -10 c-9 -9 -28 6
-21 18 4 6 10 6 17 -1 6 -6 8 -13 4 -17z m78 17 c7 -12 -12 -24 -25 -16 -11 7
-4 25 10 25 5 0 11 -4 15 -9z m105 -6 c0 -9 -7 -18 -16 -22 -18 -7 -39 11 -30
26 11 17 46 13 46 -4z m146 2 c15 -14 -12 -27 -56 -27 -50 0 -73 15 -49 32 14
9 95 5 105 -5z m185 -12 c-1 -15 -24 -12 -29 3 -3 9 2 13 12 10 10 -1 17 -7
17 -13z m2629 -2 c0 -10 7 -31 15 -46 11 -21 12 -34 4 -55 -9 -23 -12 -24 -19
-11 -16 28 -24 129 -11 129 6 0 11 -8 11 -17z m-2064 -10 c11 -12 13 -18 5
-21 -13 -4 -41 16 -41 29 0 14 17 10 36 -8z m729 -68 c-7 -57 -49 -190 -66
-211 -14 -17 -114 -27 -138 -14 -25 13 -29 45 -6 36 20 -7 33 26 30 82 -2 23
1 42 6 42 5 0 9 7 9 15 0 14 40 42 40 28 0 -4 5 -1 10 7 6 9 10 11 10 3 0 -7
7 -10 15 -7 10 4 15 0 15 -12 1 -18 1 -18 15 0 8 11 15 29 15 41 0 24 18 45
38 45 11 0 13 -11 7 -55z m2158 34 c39 -10 51 -29 18 -29 -38 0 -77 12 -101
31 l-25 20 35 -6 c19 -4 52 -11 73 -16z m-4343 -23 c0 -2 -7 -7 -16 -10 -8 -3
-12 -2 -9 4 6 10 25 14 25 6z m4659 -31 c100 -6 103 -15 5 -15 -51 1 -88 6
-104 15 l-25 15 25 -5 c14 -2 58 -7 99 -10z m181 -13 c0 -4 -16 -6 -35 -4 -19
2 -35 6 -35 8 0 2 16 4 35 4 19 0 35 -4 35 -8z m-1716 -30 c8 -13 -18 -90 -37
-109 -29 -29 -33 11 -7 68 23 48 33 58 44 41z m-2368 -51 c-4 -5 0 -11 6 -14
7 -2 9 -8 5 -13 -9 -10 -28 16 -21 28 3 4 7 8 10 8 3 0 3 -4 0 -9z m3715 -37
c-4 -47 -7 -54 -28 -54 -11 0 -13 5 -8 18 5 9 10 32 13 50 6 47 28 34 23 -14z
m-2041 -31 c-1 -14 -44 -39 -112 -67 -58 -23 -75 -25 -115 -18 l-48 9 40 7
c22 4 58 16 80 27 22 11 63 26 90 33 64 17 65 17 65 9z m178 -60 c5 -16 18
-50 27 -77 l18 -49 -29 -24 c-36 -29 -74 -31 -74 -4 0 12 9 21 26 25 30 8 27
31 -5 30 -11 0 -21 5 -21 13 0 7 -5 13 -10 13 -19 0 -21 27 -6 64 19 46 58 51
74 9z m-88 -129 c0 -8 -4 -12 -10 -9 -5 3 -10 10 -10 16 0 5 5 9 10 9 6 0 10
-7 10 -16z m-1019 -74 c32 -23 59 -46 59 -52 0 -15 -66 -3 -85 16 -8 8 -27 24
-41 35 -24 19 -26 41 -3 41 6 0 37 -18 70 -40z m1029 25 c0 -8 -7 -15 -15 -15
-8 0 -15 7 -15 15 0 8 7 15 15 15 8 0 15 -7 15 -15z m780 -4 c0 -5 -7 -14 -15
-21 -12 -10 -15 -10 -15 2 0 8 3 18 7 21 9 10 23 9 23 -2z m887 -7 c-3 -3 -12
-4 -19 -1 -8 3 -5 6 6 6 11 1 17 -2 13 -5z m-37 -18 c0 -3 -26 -16 -57 -31
-63 -28 -100 -28 -40 0 20 11 37 22 37 27 0 4 14 8 30 8 17 0 30 -2 30 -4z
m-2734 -39 c14 -14 -4 -18 -102 -22 -55 -3 -121 -7 -149 -10 -53 -5 -88 6 -64
20 30 19 298 29 315 12z m2587 -34 c-7 -2 -19 -2 -25 0 -7 3 -2 5 12 5 14 0
19 -2 13 -5z m-2588 -105 c27 -12 34 -28 11 -28 -17 0 -66 39 -49 40 7 0 24
-5 38 -12z m1970 -8 c3 -5 -1 -10 -9 -10 -9 0 -16 5 -16 10 0 6 4 10 9 10 6 0
13 -4 16 -10z m-2678 -30 c2 0 3 -4 3 -10 0 -18 -49 -11 -60 9 -9 18 -8 19 22
10 18 -5 34 -9 35 -9z m343 -10 c0 -5 -13 -10 -29 -10 -17 0 -33 5 -36 10 -4
6 8 10 29 10 20 0 36 -4 36 -10z m123 3 c-7 -2 -21 -2 -30 0 -10 3 -4 5 12 5
17 0 24 -2 18 -5z"/>
<path d="M1643 8933 c9 -2 23 -2 30 0 6 3 -1 5 -18 5 -16 0 -22 -2 -12 -5z"/>
<path d="M5456 8936 c8 -21 34 -28 50 -15 23 19 16 29 -21 29 -26 0 -33 -4
-29 -14z"/>
<path d="M5545 8410 c-7 -12 2 -30 16 -30 5 0 9 9 9 20 0 21 -15 27 -25 10z"/>
<path d="M6100 7654 c0 -8 5 -12 10 -9 6 4 8 11 5 16 -9 14 -15 11 -15 -7z"/>
<path d="M7141 7624 c0 -11 3 -14 6 -6 3 7 2 16 -1 19 -3 4 -6 -2 -5 -13z"/>
<path d="M7490 7499 c0 -17 5 -29 11 -27 6 2 10 7 10 11 -1 4 -1 16 -1 27 0
11 -4 20 -10 20 -5 0 -10 -14 -10 -31z"/>
<path d="M7695 7280 c-3 -5 -1 -10 4 -10 6 0 11 5 11 10 0 6 -2 10 -4 10 -3 0
-8 -4 -11 -10z"/>
<path d="M7230 6769 c0 -5 5 -7 10 -4 6 3 10 8 10 11 0 2 -4 4 -10 4 -5 0 -10
-5 -10 -11z"/>
<path d="M7176 6655 c-27 -41 -16 -63 13 -25 14 20 20 35 14 41 -7 7 -16 0
-27 -16z"/>
<path d="M2376 7843 c-9 -9 -7 -33 3 -33 12 0 22 28 12 34 -5 3 -11 3 -15 -1z"/>
<path d="M2230 7479 c0 -5 5 -7 10 -4 6 3 10 8 10 11 0 2 -4 4 -10 4 -5 0 -10
-5 -10 -11z"/>
<path d="M2310 7435 c0 -9 6 -12 15 -9 8 4 12 10 9 15 -8 14 -24 10 -24 -6z"/>
<path d="M3375 6960 c-3 -5 1 -10 10 -10 9 0 13 5 10 10 -3 6 -8 10 -10 10 -2
0 -7 -4 -10 -10z"/>
<path d="M4910 6040 c6 -11 15 -20 20 -20 6 0 10 9 10 20 0 13 -7 20 -20 20
-18 0 -19 -3 -10 -20z"/>
<path d="M2905 5600 c-7 -12 2 -30 16 -30 12 0 12 27 0 35 -5 3 -12 1 -16 -5z"/>
<path d="M6786 6140 c-7 -27 3 -79 28 -145 8 -22 15 -47 16 -57 0 -9 14 -21
31 -27 27 -9 30 -14 25 -37 l-7 -26 30 18 c30 18 31 18 46 -1 12 -17 14 -18
15 -3 0 25 -62 101 -89 108 -19 4 -27 16 -37 55 -7 28 -21 70 -32 95 -19 43
-20 44 -26 20z"/>
<path d="M6735 6100 c-3 -5 -1 -10 4 -10 6 0 11 5 11 10 0 6 -2 10 -4 10 -3 0
-8 -4 -11 -10z"/>
<path d="M7600 6086 c0 -8 7 -16 15 -20 22 -8 18 -37 -5 -43 -11 -3 -20 -9
-20 -14 0 -14 8 -11 40 13 32 23 38 46 18 66 -16 16 -48 15 -48 -2z"/>
<path d="M6677 6014 c-25 -38 -59 -87 -77 -109 -142 -177 -194 -392 -156 -635
9 -58 23 -127 31 -154 21 -71 19 -156 -5 -156 -4 0 -13 20 -19 45 -14 54 -33
61 -20 8 5 -21 9 -72 9 -113 2 -87 6 -101 41 -129 23 -18 30 -19 53 -8 18 8
25 18 22 30 -2 10 2 17 10 17 8 0 14 -6 14 -14 0 -20 30 -29 37 -10 3 8 0 25
-6 37 -16 30 -16 62 -1 197 6 63 11 131 11 151 -1 24 5 42 19 54 11 10 20 26
20 35 0 10 6 23 14 29 15 13 29 149 17 165 -5 6 -14 29 -21 51 -7 22 -17 45
-22 52 -6 7 -5 19 1 32 8 14 8 21 -2 24 -8 3 -6 9 7 19 17 13 17 18 4 71 -10
39 -12 72 -7 104 4 27 8 54 8 61 1 6 12 22 25 33 19 16 24 28 20 49 -3 15 1
48 10 75 9 26 15 50 12 52 -3 3 -25 -26 -49 -63z m-179 -1173 c3 -8 -1 -12 -9
-9 -7 2 -15 10 -17 17 -3 8 1 12 9 9 7 -2 15 -10 17 -17z"/>
<path d="M6910 5800 c0 -5 5 -10 10 -10 6 0 10 5 10 10 0 6 -4 10 -10 10 -5 0
-10 -4 -10 -10z"/>
<path d="M7720 4915 c0 -8 7 -15 15 -15 9 0 12 6 9 15 -4 8 -10 15 -15 15 -5
0 -9 -7 -9 -15z"/>
<path d="M501 6280 c-1 -8 -4 -26 -7 -40 -5 -22 -4 -23 6 -7 6 10 9 28 7 40
-2 12 -5 15 -6 7z"/>
<path d="M512 6100 c-20 -65 -13 -91 8 -30 22 60 24 70 12 70 -4 0 -13 -18
-20 -40z"/>
<path d="M990 6100 c0 -16 2 -30 4 -30 2 0 6 14 8 30 3 17 1 30 -4 30 -4 0 -8
-13 -8 -30z"/>
<path d="M902 6100 c0 -14 2 -19 5 -12 2 6 2 18 0 25 -3 6 -5 1 -5 -13z"/>
<path d="M901 6054 c0 -11 3 -14 6 -6 3 7 2 16 -1 19 -3 4 -6 -2 -5 -13z"/>
<path d="M5883 5815 c-3 -9 -3 -18 0 -21 9 -9 27 6 27 22 0 19 -19 18 -27 -1z"/>
<path d="M2523 4903 c8 -17 13 -20 19 -11 13 21 9 34 -11 34 -16 0 -17 -4 -8
-23z"/>
<path d="M2025 4160 c-3 -6 5 -10 19 -10 14 0 28 5 31 10 3 6 -5 10 -19 10
-14 0 -28 -4 -31 -10z"/>
<path d="M2160 4145 c0 -16 9 -19 34 -9 25 9 19 24 -9 24 -16 0 -25 -6 -25
-15z"/>
<path d="M2040 4131 c0 -5 14 -11 31 -15 39 -7 64 5 29 15 -36 10 -60 10 -60
0z"/>
<path d="M2905 3970 c-22 -11 -44 -19 -48 -20 -4 0 -29 -9 -55 -21 -26 -12
-63 -28 -82 -36 -34 -15 -154 -71 -217 -102 -18 -8 -33 -20 -33 -24 0 -5 12
-1 27 8 24 16 27 16 38 2 11 -15 19 -14 90 14 109 42 305 138 333 162 44 40
15 50 -53 17z"/>
<path d="M2030 3959 c0 -5 5 -7 10 -4 6 3 10 8 10 11 0 2 -4 4 -10 4 -5 0 -10
-5 -10 -11z"/>
<path d="M2204 3934 c-10 -37 12 -55 26 -20 14 37 13 46 -5 46 -8 0 -18 -12
-21 -26z"/>
<path d="M2525 3950 c-3 -5 -1 -10 4 -10 6 0 11 5 11 10 0 6 -2 10 -4 10 -3 0
-8 -4 -11 -10z"/>
<path d="M2445 3910 c-3 -5 -1 -10 4 -10 6 0 11 5 11 10 0 6 -2 10 -4 10 -3 0
-8 -4 -11 -10z"/>
<path d="M2400 3880 c0 -13 5 -20 13 -17 6 2 12 10 12 17 0 7 -6 15 -12 18 -8
2 -13 -5 -13 -18z"/>
<path d="M2221 3866 c-13 -14 -28 -23 -32 -20 -5 3 -9 -9 -9 -25 0 -19 5 -31
13 -30 20 0 59 57 55 80 -3 20 -4 20 -27 -5z"/>
<path d="M2555 3880 c-3 -5 -1 -10 4 -10 6 0 11 5 11 10 0 6 -2 10 -4 10 -3 0
-8 -4 -11 -10z"/>
<path d="M2488 3853 c7 -3 16 -2 19 1 4 3 -2 6 -13 5 -11 0 -14 -3 -6 -6z"/>
<path d="M4801 5564 c0 -11 3 -14 6 -6 3 7 2 16 -1 19 -3 4 -6 -2 -5 -13z"/>
<path d="M4728 5421 c-36 -36 -35 -41 6 -41 19 0 38 -4 41 -10 3 -5 14 -10 23
-10 12 0 7 8 -16 26 -23 18 -32 33 -29 45 6 24 7 24 -25 -10z"/>
<path d="M3264 4719 c-3 -5 7 -14 21 -19 34 -13 35 -13 35 4 0 15 -48 28 -56
15z"/>
<path d="M1645 8699 c-10 -15 3 -25 16 -12 7 7 7 13 1 17 -6 3 -14 1 -17 -5z"/>
<path d="M10223 7361 c-11 -31 -12 -32 -61 -25 -43 5 -55 3 -88 -20 -21 -14
-44 -26 -50 -26 -6 0 -38 -12 -70 -26 -33 -14 -77 -34 -99 -44 -22 -9 -69 -30
-105 -46 -76 -33 -179 -90 -198 -108 -10 -9 -10 -19 -3 -40 13 -33 35 -42 64
-28 12 7 83 36 157 66 74 30 172 72 217 95 45 23 85 41 89 41 18 0 156 73 160
84 3 8 4 35 2 61 l-3 47 -12 -31z"/>
<path d="M605 7213 c-7 -19 9 -38 24 -29 16 10 14 33 -3 39 -8 3 -17 -1 -21
-10z"/>
<path d="M9484 7179 c-9 -15 -2 -18 20 -9 17 6 18 7 3 13 -9 3 -19 2 -23 -4z"/>
<path d="M420 7110 c0 -5 5 -10 10 -10 6 0 10 5 10 10 0 6 -4 10 -10 10 -5 0
-10 -4 -10 -10z"/>
<path d="M430 7080 c0 -5 5 -10 11 -10 5 0 7 5 4 10 -3 6 -8 10 -11 10 -2 0
-4 -4 -4 -10z"/>
<path d="M10193 7051 c-2 -10 -29 -31 -58 -46 -29 -14 -56 -33 -59 -42 -4 -10
-14 -13 -31 -9 -14 4 -33 2 -42 -3 -88 -45 -113 -53 -126 -42 -24 19 -70 3
-87 -32 -14 -30 -25 -38 -90 -66 -14 -6 -38 -19 -55 -29 -58 -36 -123 -42
-193 -21 -28 9 -41 7 -88 -15 -30 -14 -59 -26 -64 -26 -5 0 -14 -9 -20 -20
-14 -26 8 -105 44 -165 13 -22 41 -68 60 -102 41 -69 93 -118 138 -127 40 -8
26 -26 -20 -26 -48 0 -73 18 -108 77 -15 27 -52 78 -83 114 -31 36 -60 74 -66
83 -14 25 -140 27 -158 3 -11 -16 -15 -16 -52 3 l-41 20 -77 -37 c-55 -26 -77
-42 -77 -55 0 -23 73 -171 106 -215 13 -17 24 -35 24 -39 0 -5 19 -28 42 -51
48 -49 68 -52 146 -24 75 28 87 -2 15 -37 -36 -17 -45 -39 -15 -35 43 5 139
13 160 13 13 0 21 3 19 8 -3 4 24 7 59 8 42 0 69 6 81 16 10 9 29 19 43 23 14
4 30 11 35 15 6 4 35 15 65 25 30 10 83 33 118 51 35 18 82 35 105 39 73 12
189 55 201 74 3 5 27 12 53 16 27 4 69 17 95 28 l48 22 0 323 c0 320 0 322
-21 322 -12 0 -23 -8 -26 -19z"/>
<path d="M0 6620 c0 -5 5 -10 11 -10 5 0 7 5 4 10 -3 6 -8 10 -11 10 -2 0 -4
-4 -4 -10z"/>
<path d="M8790 6383 c-1 -33 -25 -54 -51 -45 -13 5 -36 6 -51 2 -18 -6 -28 -4
-31 4 -3 7 -22 21 -42 31 -37 17 -38 17 -106 -11 -38 -15 -74 -33 -80 -41 -15
-18 14 -91 48 -121 23 -19 33 -21 76 -16 68 9 60 -14 -14 -39 -43 -15 -65 -32
-108 -81 -30 -33 -60 -78 -67 -100 -16 -46 -29 -213 -20 -250 9 -37 28 -22 21
17 -3 18 -1 52 4 77 l9 45 1 -37 c1 -46 13 -77 41 -106 24 -25 38 -25 54 0 7
12 3 21 -18 40 -34 29 -29 68 8 68 28 0 46 18 46 47 0 16 13 29 48 49 26 15
60 39 75 53 28 25 29 25 58 8 17 -9 37 -17 45 -17 8 0 31 -9 51 -20 44 -23 54
-24 102 -9 85 27 83 26 78 72 l-5 42 46 3 c47 3 77 24 44 31 -26 5 -72 41 -72
55 0 8 -16 26 -35 40 -19 15 -35 33 -35 41 0 8 -16 40 -35 72 -19 32 -35 63
-35 69 0 12 -32 44 -43 44 -4 0 -7 -8 -7 -17z"/>
<path d="M255 5360 c3 -5 8 -10 11 -10 2 0 4 5 4 10 0 6 -5 10 -11 10 -5 0 -7
-4 -4 -10z"/>
<path d="M10190 4746 c-159 -62 -248 -105 -269 -130 -8 -9 -17 -16 -22 -16
-14 0 -142 -61 -171 -82 -36 -25 -35 -31 7 -44 27 -9 41 -8 61 2 15 8 31 14
37 14 11 0 81 26 152 56 104 43 228 73 239 56 11 -18 -28 -37 -139 -67 -27 -8
-84 -32 -125 -53 -73 -39 -75 -41 -72 -73 2 -19 10 -46 17 -61 7 -16 9 -28 4
-28 -5 0 -4 -9 3 -19 10 -16 22 -19 72 -18 44 2 60 -1 58 -10 -1 -7 7 -13 18
-13 11 0 20 -5 20 -10 0 -6 -11 -8 -26 -4 -18 5 -25 3 -20 -4 3 -6 1 -12 -6
-14 -8 -3 -5 -15 11 -36 12 -18 27 -30 32 -27 5 4 9 -1 9 -9 0 -22 49 -21 67
2 13 16 14 15 9 -7 -5 -22 -4 -23 13 -5 18 18 18 20 0 36 -9 10 -20 26 -24 38
-4 13 -15 20 -33 20 -24 1 -25 2 -9 11 13 8 22 7 33 -2 13 -10 17 -10 24 1 4
7 17 14 28 15 11 0 27 8 36 17 14 14 16 48 16 247 0 127 -3 231 -7 231 -5 -1
-24 -7 -43 -14z"/>
<path d="M677 4463 c-7 -37 10 -54 19 -19 3 15 2 32 -3 37 -7 7 -12 1 -16 -18z"/>
<path d="M1535 4450 c3 -5 8 -10 11 -10 2 0 4 5 4 10 0 6 -5 10 -11 10 -5 0
-7 -4 -4 -10z"/>
<path d="M1580 4349 c7 -11 14 -19 16 -16 7 7 -7 37 -17 37 -6 0 -5 -9 1 -21z"/>
<path d="M1620 4227 c0 -8 7 -17 15 -21 8 -3 15 -2 15 3 0 5 -7 14 -15 21 -12
10 -15 10 -15 -3z"/>
<path d="M10165 4060 c-3 -5 1 -10 9 -10 9 0 16 5 16 10 0 6 -4 10 -9 10 -6 0
-13 -4 -16 -10z"/>
<path d="M10171 4031 c-10 -7 -10 -10 -1 -16 6 -4 16 -3 22 3 13 13 -4 23 -21
13z"/>
<path d="M9745 4023 c-26 -6 -44 -23 -24 -23 8 0 24 7 35 15 10 8 17 14 14 14
-3 -1 -14 -3 -25 -6z"/>
<path d="M9630 3970 c-13 -8 -13 -10 2 -10 9 0 20 5 23 10 8 13 -5 13 -25 0z"/>
<path d="M9578 3943 c7 -3 16 -2 19 1 4 3 -2 6 -13 5 -11 0 -14 -3 -6 -6z"/>
<path d="M9460 3885 c-7 -8 -19 -15 -26 -15 -8 0 -14 -5 -14 -10 0 -10 33 4
70 29 13 9 13 11 -1 11 -9 0 -22 -7 -29 -15z"/>
<path d="M10195 3731 c-6 -5 -26 -11 -45 -13 -25 -2 -38 -10 -47 -27 -18 -37
-6 -44 58 -38 73 6 79 11 79 53 0 26 -4 34 -18 34 -10 0 -22 -4 -27 -9z"/>
<path d="M1208 3583 c7 -3 16 -2 19 1 4 3 -2 6 -13 5 -11 0 -14 -3 -6 -6z"/>
<path d="M9685 3580 c3 -5 13 -10 20 -10 9 0 12 -6 8 -16 -4 -11 1 -22 12 -30
24 -18 66 -18 63 -1 -2 7 9 13 25 15 23 3 28 8 25 25 -3 20 -10 22 -81 25 -53
2 -77 -1 -72 -8z"/>
<path d="M9817 3512 c-16 -18 -15 -20 27 -40 24 -12 51 -22 61 -22 17 0 17 2
-2 23 -11 12 -23 30 -26 40 -8 22 -39 22 -60 -1z"/>
<path d="M8882 3445 c-16 -13 -32 -22 -35 -19 -12 12 -45 -16 -40 -35 3 -13
-2 -21 -16 -26 -31 -9 -26 -22 7 -17 24 3 34 -4 66 -43 44 -53 41 -60 -30 -78
-38 -9 -50 -17 -52 -33 -4 -27 -56 -40 -96 -24 -23 8 -26 7 -26 -13 0 -26 -34
-42 -115 -52 -27 -4 -75 -14 -105 -23 -35 -10 -84 -15 -136 -13 -62 2 -83 -1
-93 -13 -11 -13 -6 -14 38 -12 28 1 51 -1 51 -5 0 -4 16 -13 36 -19 19 -7 33
-14 31 -17 -3 -2 -103 -7 -224 -10 -120 -3 -219 -7 -221 -8 -2 -2 -5 -10 -6
-19 -1 -9 -10 -22 -20 -29 -17 -12 -17 -15 0 -51 16 -32 22 -36 44 -31 53 12
79 27 82 48 2 17 10 22 33 22 25 0 32 -5 40 -32 10 -36 25 -40 84 -23 27 7 38
6 51 -5 13 -11 19 -12 28 -3 9 9 12 9 12 -2 1 -10 9 -5 23 12 27 32 43 36 80
18 28 -14 34 -25 17 -35 -14 -9 -12 -25 3 -25 6 0 23 16 36 35 30 45 64 47 81
6 14 -34 48 -49 134 -58 49 -5 65 -12 94 -40 29 -28 33 -39 28 -63 -3 -17 -2
-30 3 -30 5 0 8 -28 6 -62 -1 -35 -3 -63 -4 -63 -1 0 -3 -17 -4 -38 l-2 -38
36 6 c31 5 39 3 53 -17 9 -12 16 -31 16 -41 0 -10 9 -21 20 -24 21 -5 28 -23
10 -23 -6 0 -15 -12 -21 -26 -9 -25 -13 -26 -54 -21 -36 5 -45 4 -45 -8 0 -12
9 -14 43 -9 23 4 56 12 74 20 26 10 34 10 43 -1 8 -10 19 -11 42 -5 26 8 31 6
35 -10 3 -13 14 -20 29 -20 12 0 25 -3 28 -8 6 -10 -13 -90 -31 -128 -14 -29
-13 -35 8 -75 12 -24 25 -57 29 -74 6 -28 9 -30 56 -31 67 -1 70 -2 56 -16 -7
-7 -12 -21 -12 -33 0 -11 -7 -33 -15 -49 -22 -41 -19 -64 8 -68 29 -4 28 -25
-2 -41 -13 -7 -29 -25 -35 -42 -21 -57 -50 -95 -73 -95 -15 0 -23 7 -25 23 -4
31 -33 29 -33 -3 0 -14 -8 -40 -18 -58 -21 -39 -14 -56 20 -48 15 4 29 1 39
-9 9 -8 20 -13 25 -10 5 4 14 -5 20 -19 6 -13 19 -25 28 -26 68 -4 92 -8 98
-14 3 -3 16 -6 27 -7 12 0 15 -3 8 -6 -9 -3 -6 -12 12 -28 33 -30 24 -62 -23
-83 -20 -9 -44 -23 -53 -31 -19 -15 -25 -2 -7 16 19 19 -9 25 -36 7 -21 -14
-29 -36 -27 -74 0 -3 -14 -6 -31 -7 -18 -1 -41 -3 -52 -5 -16 -2 -21 5 -28 45
-5 26 -7 51 -3 54 10 10 35 -29 36 -54 0 -13 5 -23 10 -23 6 0 10 18 10 40 0
29 -4 40 -15 40 -9 0 -12 6 -9 15 4 8 12 15 19 15 20 0 25 38 8 70 -16 33 -35
50 -32 29 3 -29 -2 -85 -9 -97 -14 -22 -67 -3 -87 30 -15 25 -15 32 -4 40 12
8 11 9 -1 5 -8 -2 -18 -21 -22 -43 -5 -31 -3 -42 12 -55 11 -9 25 -37 32 -63
10 -39 10 -53 -5 -93 -9 -27 -20 -70 -23 -98 -4 -27 -12 -57 -19 -65 -7 -8
-15 -39 -18 -69 -4 -30 -10 -57 -14 -60 -5 -3 -13 -15 -19 -26 -8 -13 -21 -19
-38 -18 -20 1 -28 -5 -38 -33 -13 -36 -31 -42 -63 -20 -11 7 -33 14 -49 14
-15 0 -31 4 -35 9 -38 58 -86 102 -116 107 -23 5 -45 20 -68 46 -19 22 -38 40
-42 40 -5 0 -36 14 -70 30 -73 36 -130 95 -147 153 -6 23 -19 53 -29 67 -9 14
-20 36 -24 50 -4 14 -18 46 -31 72 -13 25 -26 61 -29 79 -3 19 -13 41 -21 50
-23 26 -17 39 16 33 42 -9 133 39 176 92 19 22 34 46 34 52 0 5 -18 13 -40 17
-22 4 -58 15 -80 26 -36 18 -40 23 -40 57 0 24 -10 52 -30 82 -16 25 -30 50
-30 57 0 7 -7 16 -16 21 -9 5 -23 23 -30 41 -11 26 -11 31 1 31 8 0 15 5 15
10 0 16 -48 108 -60 115 -5 3 -10 10 -10 16 0 14 22 11 41 -7 10 -9 23 -14 29
-12 6 2 -18 35 -53 73 -35 39 -90 114 -123 168 -35 60 -77 114 -104 137 -50
41 -85 56 -95 40 -13 -21 -43 -10 -54 20 -7 21 -17 30 -31 30 -30 0 -60 -18
-60 -37 0 -13 -3 -13 -15 -3 -22 18 -45 -5 -45 -45 0 -64 -69 -76 -105 -18
-20 33 -43 41 -61 23 -8 -8 -18 -5 -34 8 -26 21 -19 46 10 37 24 -8 50 33 29
46 -8 5 -21 2 -32 -9 -24 -22 -120 -30 -199 -16 -44 7 -50 30 -17 60 16 15 24
16 39 6 29 -18 40 -15 40 11 0 47 64 75 185 80 35 2 40 5 49 35 5 18 6 35 3
38 -8 8 -40 8 -107 -1 -34 -4 -66 -3 -84 4 -29 12 -29 12 -10 31 10 11 64 33
118 50 55 17 105 35 112 41 8 6 21 8 30 5 18 -7 70 21 59 32 -11 12 -129 1
-158 -15 -19 -9 -39 -12 -60 -7 -46 10 -94 6 -157 -12 -30 -8 -68 -17 -85 -20
-93 -12 -156 -26 -205 -44 -30 -12 -89 -32 -130 -46 -41 -13 -83 -29 -92 -34
-10 -6 -27 -10 -38 -10 -11 0 -42 -11 -68 -24 -26 -13 -62 -27 -81 -31 -19 -4
-55 -19 -80 -34 -25 -15 -62 -33 -81 -41 -19 -8 -50 -25 -69 -37 -19 -13 -38
-23 -43 -23 -4 0 -27 -9 -51 -19 -23 -11 -54 -22 -69 -25 -16 -4 -28 -11 -28
-16 0 -6 -13 -10 -30 -10 -16 0 -30 -4 -30 -10 0 -5 -15 -10 -34 -10 -18 0
-39 -6 -45 -14 -6 -8 -24 -16 -39 -19 -32 -7 -230 -76 -286 -100 -21 -9 -49
-17 -62 -17 -13 0 -24 -4 -24 -10 0 -5 -6 -10 -14 -10 -13 0 -88 -33 -138 -61
-75 -40 -149 -77 -183 -89 -22 -8 -83 -36 -135 -61 -52 -26 -122 -59 -155 -74
-33 -15 -137 -65 -232 -111 -94 -46 -177 -84 -183 -84 -6 0 -28 -9 -48 -19
-20 -11 -54 -27 -74 -35 -21 -9 -53 -22 -70 -30 -18 -7 -53 -21 -78 -31 -25
-9 -54 -21 -65 -26 -11 -5 -51 -18 -90 -29 -38 -12 -85 -28 -103 -36 -18 -8
-44 -14 -57 -14 -13 0 -26 -4 -29 -9 -3 -4 -34 -14 -68 -20 -35 -7 -72 -17
-83 -21 -22 -10 -70 -24 -130 -39 -22 -5 -60 -15 -85 -22 -25 -7 -60 -14 -78
-16 -19 -2 -44 -10 -55 -17 -12 -8 -41 -14 -65 -14 -50 -1 -153 -21 -167 -34
-5 -4 -20 -8 -35 -8 -14 0 -34 -7 -44 -15 -11 -8 -30 -15 -42 -15 -13 0 -25
-4 -28 -9 -3 -5 -28 -14 -56 -21 -28 -7 -53 -16 -56 -21 -3 -5 -17 -9 -32 -9
-15 0 -61 -13 -102 -29 -41 -16 -100 -37 -130 -46 -89 -28 -179 -64 -265 -107
-94 -47 -90 -44 -225 -125 -58 -34 -124 -74 -148 -87 -45 -27 -72 -73 -51 -87
29 -18 126 -21 164 -5 20 9 44 16 52 16 7 0 26 9 41 19 31 23 200 81 234 81
26 0 68 -25 68 -41 0 -6 -7 -17 -15 -25 -8 -8 -19 -32 -24 -52 -6 -20 -20 -55
-31 -77 -11 -21 -20 -45 -20 -53 0 -26 -31 -73 -55 -82 -14 -5 -25 -16 -25
-25 0 -8 -4 -15 -8 -15 -5 0 -24 -14 -42 -30 -21 -18 -36 -26 -40 -20 -9 14
12 80 25 80 25 1 39 23 47 72 4 29 10 70 14 91 5 32 4 37 -12 37 -21 -1 -86
-50 -66 -50 28 0 9 -29 -30 -45 -24 -9 -50 -23 -59 -31 -10 -9 -48 -20 -85
-25 -38 -5 -70 -14 -72 -19 -2 -6 -12 -10 -22 -10 -10 0 -21 -4 -24 -9 -3 -4
-19 -11 -35 -14 -39 -8 -132 -67 -105 -67 16 0 16 -2 4 -10 -8 -5 -23 -7 -32
-4 -18 5 -98 -31 -98 -45 0 -4 50 -9 111 -10 61 -1 115 -4 120 -7 19 -11 -4
-26 -32 -20 -15 3 -49 -1 -76 -9 -26 -7 -64 -15 -83 -16 -19 -2 -43 -11 -53
-21 -10 -10 -26 -18 -37 -18 -10 0 -22 -4 -25 -10 -3 -5 -13 -10 -21 -10 -9 0
-23 -7 -31 -16 -10 -10 -27 -14 -45 -12 -15 3 -28 2 -28 -2 0 -4 -22 -31 -50
-61 -27 -30 -50 -58 -50 -64 0 -5 16 -27 35 -48 35 -38 44 -70 24 -82 -5 -4
-8 -19 -6 -33 2 -15 2 -21 0 -14 -3 8 -12 10 -24 7 -11 -4 -19 -2 -19 4 0 23
-19 9 -25 -18 -3 -16 -17 -39 -31 -51 -13 -13 -24 -27 -24 -32 0 -4 999 -8
2220 -8 2156 0 2220 1 2211 18 -23 43 48 84 80 46 10 -12 10 -20 1 -35 -7 -10
-12 -21 -12 -24 0 -3 259 -5 575 -5 323 0 575 4 575 9 0 5 -22 18 -49 30 -28
11 -52 25 -55 29 -3 5 -23 15 -46 22 -46 15 -75 50 -42 50 35 0 138 -38 189
-69 28 -17 65 -36 82 -42 17 -6 31 -15 31 -20 0 -5 670 -9 1635 -9 l1635 0 0
846 c0 545 -3 843 -10 839 -15 -9 -29 -73 -34 -165 -5 -86 -24 -161 -43 -167
-6 -2 -16 10 -23 27 -7 16 -17 30 -22 30 -5 0 -7 4 -4 8 2 4 1 14 -3 21 -7 10
-13 11 -31 1 -17 -9 -28 -9 -51 0 -24 10 -29 18 -29 45 0 36 23 62 66 75 l29
8 -32 7 c-18 4 -33 13 -34 19 0 6 -5 0 -10 -13 -5 -13 -12 -21 -15 -18 -12 11
37 77 57 77 25 0 24 18 -1 45 -19 20 -19 23 -4 53 8 18 21 32 27 33 7 0 3 4
-8 9 -16 7 -13 9 17 9 20 1 44 8 53 17 11 11 24 14 43 9 25 -6 26 -5 11 10
-13 13 -21 15 -37 6 -11 -6 -44 -11 -73 -11 -50 0 -56 3 -95 45 -49 51 -49 64
3 124 19 23 30 41 24 41 -6 0 -11 -4 -11 -10 0 -5 -7 -10 -15 -10 -8 0 -15 -5
-15 -11 0 -5 -5 -7 -10 -4 -6 4 -8 11 -5 16 4 5 -5 9 -18 9 -13 0 -38 5 -56
11 -24 9 -31 16 -26 28 13 31 10 46 -8 45 -10 -1 -28 8 -41 21 -12 12 -28 24
-35 26 -14 5 -15 19 -26 229 -4 74 -9 138 -12 143 -2 4 1 7 7 7 14 0 2 67 -17
96 -12 19 -12 22 1 27 8 3 21 -4 30 -16 14 -20 15 -20 9 -2 -11 33 -33 71 -33
58 0 -27 -36 -33 -101 -16 -35 8 -70 21 -78 27 -11 9 -12 5 -6 -24 9 -42 29
-73 40 -62 5 4 -1 -7 -13 -25 -12 -17 -22 -36 -22 -42 0 -5 -10 -20 -22 -31
-21 -20 -30 -21 -93 -15 -82 8 -100 16 -120 55 -21 41 -19 55 16 95 17 19 27
35 21 35 -5 0 -16 -7 -23 -16 -19 -23 -85 -12 -116 19 -15 14 -27 40 -30 64
-5 37 -8 41 -41 46 -22 4 -42 1 -56 -8 -11 -8 -28 -15 -38 -15 -11 0 -18 -8
-18 -20 0 -16 -7 -20 -30 -20 -23 0 -30 4 -30 20 0 12 9 24 23 29 20 8 19 9
-13 16 -19 4 -43 13 -52 20 -12 8 -35 9 -75 4 -32 -4 -59 -6 -61 -4 -8 8 10
25 27 25 34 0 88 29 115 60 21 25 32 31 58 28 27 -2 33 -7 31 -25 -2 -19 4
-23 43 -29 36 -5 54 -2 89 16 48 25 69 19 62 -16 -4 -24 7 -33 18 -14 9 14
121 12 145 -2 17 -11 22 -10 30 2 9 14 14 53 12 89 0 8 20 33 45 55 53 47 172
95 245 99 27 1 48 6 48 10 0 4 8 11 18 15 34 15 92 54 92 63 0 12 0 12 -48
-11 -23 -11 -69 -23 -102 -27 -33 -3 -60 -9 -60 -12 0 -3 -12 -7 -27 -7 -62
-4 -113 -17 -113 -30 0 -8 -12 -17 -27 -21 -32 -9 -127 -9 -163 0 -14 4 -33 8
-42 10 -23 4 -35 17 -17 17 10 1 8 4 -4 11 -33 19 -80 30 -157 36 -41 3 -77 7
-79 9 -9 9 8 14 48 16 46 1 52 7 57 50 3 20 -1 30 -14 34 -9 3 -26 10 -38 16
-12 5 -32 9 -45 8 -75 -6 -100 6 -56 28 20 11 20 12 2 11 -45 -3 -91 2 -104
10 -19 12 2 47 34 55 25 6 30 20 19 50 -8 22 -18 20 -52 -9z m296 -446 c40 2
43 0 40 -21 -5 -37 -47 -45 -101 -19 -26 12 -56 21 -68 19 -33 -5 -34 19 -2
29 18 6 39 6 58 0 17 -5 49 -9 73 -8z m-2864 -418 c3 -5 -1 -14 -9 -21 -23
-19 -18 -33 10 -26 18 5 25 2 25 -8 0 -10 -18 -16 -67 -21 -38 -3 -111 -17
-164 -31 -77 -21 -101 -24 -118 -15 -12 7 -21 16 -21 21 0 15 51 37 110 48 30
6 69 16 85 23 30 13 110 36 132 38 6 0 14 -3 17 -8z m3414 -9 c6 -18 -15 -14
-22 4 -4 10 -1 14 6 12 6 -2 14 -10 16 -16z m-2438 -92 c44 -31 47 -68 7 -83
-35 -13 -96 71 -70 96 12 12 34 7 63 -13z m182 -97 c21 -19 24 -56 6 -70 -7
-6 -30 -13 -51 -16 -34 -5 -39 -3 -48 20 -7 20 -7 57 0 81 4 10 78 -1 93 -15z
m-1256 -208 c4 -8 10 -12 15 -9 5 3 9 1 9 -4 0 -10 -23 -22 -41 -22 -5 0 -9
11 -9 25 0 27 17 34 26 10z m1774 -69 c0 -7 -8 -20 -17 -27 -11 -10 -14 -10
-9 -1 4 6 2 12 -3 12 -6 0 -11 7 -11 15 0 8 9 15 20 15 11 0 20 -6 20 -14z
m1668 -13 c-4 -23 -68 -32 -68 -10 0 20 10 27 42 27 23 0 29 -4 26 -17z
m-2148 -39 c0 -8 -4 -14 -10 -14 -5 0 -10 9 -10 21 0 11 5 17 10 14 6 -3 10
-13 10 -21z m2061 15 c16 -8 19 -17 14 -40 -4 -18 -3 -29 4 -29 6 0 11 -19 11
-44 0 -26 6 -48 15 -56 8 -7 15 -21 15 -32 0 -11 9 -43 21 -71 23 -57 66 -159
82 -194 5 -12 7 -29 3 -38 -9 -23 -39 -14 -51 15 -5 14 -25 54 -42 89 -18 35
-33 70 -33 78 0 8 -16 42 -35 75 -21 36 -36 76 -38 99 -1 24 -7 39 -15 39 -7
0 -16 8 -19 18 -4 9 -15 24 -26 32 -44 36 39 89 94 59z m-1986 -18 c3 -10 28
-40 55 -65 28 -26 50 -49 50 -52 0 -10 40 -90 59 -118 25 -38 18 -62 -12 -41
-12 8 -32 15 -45 15 -20 0 -21 3 -12 20 14 27 7 37 -38 50 -58 16 -69 26 -55
49 10 16 10 19 0 15 -10 -3 -12 3 -9 24 3 21 -3 37 -22 57 -20 22 -23 31 -15
46 13 24 36 24 44 0z m294 -35 c6 -8 15 -30 18 -50 4 -28 2 -36 -10 -36 -19 0
-57 63 -57 96 0 21 3 23 18 15 10 -5 24 -17 31 -25z m-449 -1 c0 -8 -4 -15
-10 -15 -5 0 -10 7 -10 15 0 8 5 15 10 15 6 0 10 -7 10 -15z m-1022 -45 c27
-26 29 -66 3 -80 -11 -5 -43 -10 -71 -10 -42 0 -55 4 -75 26 -24 26 -33 63
-18 77 3 4 36 7 73 7 53 0 71 -4 88 -20z m337 -1 c0 -10 -14 -14 -47 -15 -34
-1 -45 2 -41 12 2 7 19 15 36 17 43 5 52 3 52 -14z m273 -3 c4 -18 32 -55 32
-41 0 3 10 -3 21 -14 28 -26 18 -51 -20 -51 -35 0 -43 10 -43 55 0 19 -6 39
-14 46 -19 16 -18 31 3 27 10 -2 19 -12 21 -22z m2747 -24 c16 -11 35 -60 35
-91 0 -30 -31 -64 -68 -76 -19 -5 -25 -1 -37 29 -8 19 -15 53 -15 75 0 34 5
43 28 55 31 17 43 19 57 8z m-1853 -47 c0 -5 -5 -11 -11 -13 -6 -2 -11 4 -11
13 0 9 5 15 11 13 6 -2 11 -8 11 -13z m1346 -13 c7 -49 -50 -73 -62 -26 -8 32
10 56 38 52 13 -2 22 -12 24 -26z m-2684 -18 c9 -3 16 -12 16 -19 0 -20 22
-24 47 -8 24 16 166 23 180 10 13 -13 -48 -56 -87 -62 -19 -3 -84 -16 -145
-30 -60 -14 -141 -30 -180 -35 -38 -6 -88 -15 -110 -21 -22 -5 -87 -16 -145
-24 -217 -29 -299 -45 -351 -70 -62 -28 -72 -30 -87 -12 -20 24 5 38 109 66
57 15 114 32 125 39 12 6 24 9 27 6 3 -4 21 3 39 14 18 11 51 25 73 30 160 42
213 57 230 68 11 7 50 18 87 24 37 5 77 14 90 19 27 12 60 13 82 5z m1518 -32
c-4 -11 -6 -11 -13 0 -5 7 -9 19 -9 26 0 10 3 10 14 0 7 -7 11 -19 8 -26z
m-464 -10 c4 -25 -13 -30 -22 -6 -9 25 -7 36 7 32 6 -3 13 -14 15 -26z m1582
-93 c0 -10 -7 -19 -15 -19 -15 0 -21 31 -9 43 11 10 24 -3 24 -24z m324 -12
c13 -36 -7 -57 -62 -64 -38 -5 -42 -3 -47 20 -8 32 0 47 26 47 11 0 22 7 26
16 9 24 46 12 57 -19z m-2769 -83 c-11 -9 -48 -15 -94 -15 -106 -3 -106 -3
-123 -16 -13 -11 -74 -22 -200 -37 -21 -3 -38 0 -38 5 0 5 9 9 20 9 11 0 20 4
20 9 0 5 10 11 23 14 12 2 58 15 102 27 87 25 258 41 289 26 19 -8 19 -9 1
-22z m2671 -20 c28 -29 27 -23 13 -63 -9 -26 -16 -31 -44 -31 -25 0 -34 5 -39
23 -11 41 -6 64 17 80 29 21 26 21 53 -9z m-4228 -18 c4 -21 -14 -37 -35 -29
-14 5 -18 35 -6 47 12 12 38 1 41 -18z m3898 -1 c8 -20 -13 -45 -38 -45 -21 0
-33 22 -24 45 7 20 55 19 62 0z m837 -141 c-1 -6 9 -22 22 -34 36 -34 32 -48
-12 -45 -65 4 -93 21 -93 53 0 16 3 32 7 36 11 11 78 2 76 -10z m-5637 -25 c9
-15 -11 -33 -30 -26 -9 4 -13 13 -10 22 7 17 30 20 40 4z m898 -8 c-5 -4 -42
-21 -82 -36 -54 -20 -77 -24 -85 -16 -8 8 -2 11 22 11 24 0 34 5 38 19 3 13
19 21 56 28 55 9 67 8 51 -6z m-2289 -28 c3 -10 1 -19 -4 -21 -20 -7 0 -22 29
-22 16 0 33 7 38 16 6 11 14 14 23 8 8 -5 37 -9 64 -9 44 0 50 -3 53 -22 3
-24 -3 -26 -81 -37 -58 -8 -90 -36 -104 -93 -6 -27 -25 -78 -42 -114 -17 -36
-31 -69 -31 -74 0 -29 -99 -197 -138 -235 -26 -25 -60 -69 -77 -98 -31 -53
-52 -69 -67 -54 -10 10 6 92 20 101 14 9 42 68 36 74 -3 3 11 36 30 73 36 68
48 110 24 86 -18 -18 -28 -15 -28 8 0 29 29 58 51 53 15 -4 19 0 19 21 0 15
-7 29 -15 32 -22 9 -18 31 9 49 13 9 26 25 29 35 3 11 14 20 25 20 25 0 59 37
46 50 -6 6 -24 3 -49 -10 -41 -21 -85 -27 -85 -11 0 23 15 43 41 57 16 8 32
26 35 39 4 16 13 25 26 25 13 0 18 5 15 13 -3 7 4 19 15 26 19 12 19 10 13
-18 l-7 -31 32 18 c24 13 29 22 25 40 -7 27 19 31 30 5z m2078 -44 c-9 -9 -81
-36 -138 -51 -22 -6 -49 -17 -60 -25 -11 -7 -31 -13 -46 -13 -15 0 -32 -6 -38
-14 -7 -8 -28 -17 -49 -21 -20 -4 -44 -13 -54 -21 -9 -9 -18 -11 -22 -6 -6 10
87 62 111 62 7 0 35 14 61 30 34 21 62 30 91 30 22 0 41 4 41 9 0 15 60 38 86
33 14 -2 22 -8 17 -13z m521 -79 c23 -60 34 -214 15 -208 -8 3 -15 22 -17 44
-3 47 -16 146 -27 194 -9 46 6 29 29 -30z m98 -36 c12 -65 17 -249 8 -264 -8
-12 -10 -9 -10 10 -1 36 -18 208 -26 259 -6 35 -4 43 7 39 8 -3 17 -22 21 -44z
m1976 -31 c-2 -10 -10 -18 -18 -18 -8 0 -16 8 -18 18 -2 12 3 17 18 17 15 0
20 -5 18 -17z m2402 -30 c0 -5 -11 -13 -25 -20 -28 -12 -31 -9 -12 12 13 15
37 20 37 8z m-7666 -99 c22 -9 10 -24 -20 -24 -15 0 -24 6 -24 15 0 16 17 19
44 9z m891 -34 c-3 -5 -12 -10 -18 -10 -7 0 -6 4 3 10 19 12 23 12 15 0z m-65
-41 c-17 -14 -26 -17 -28 -9 -5 14 16 30 38 30 10 -1 7 -7 -10 -21z m-260 -53
c0 -30 -26 -42 -39 -17 -7 12 -6 22 1 29 20 20 38 13 38 -12z m-256 5 c11 -17
-13 -61 -32 -61 -35 0 -59 51 -29 63 21 9 56 7 61 -2z m605 -118 c-4 -99 -36
-169 -46 -102 -9 55 -1 112 17 134 22 26 31 16 29 -32z m5345 -78 c9 -13 16
-29 16 -35 0 -14 -37 -13 -46 1 -4 7 -21 9 -40 6 -40 -7 -42 -2 -12 30 28 30
62 29 82 -2z m-6114 -71 c0 -11 -23 -50 -43 -71 -24 -27 -63 -32 -53 -7 3 9 6
20 6 26 0 6 7 7 16 4 10 -4 18 3 26 24 6 19 17 30 29 30 10 0 19 -3 19 -6z
m6381 -62 c66 -46 118 -136 67 -117 -8 3 -21 16 -27 28 -7 12 -35 38 -62 57
-27 19 -49 43 -49 53 0 25 10 22 71 -21z m-6281 -26 c0 -8 -4 -18 -10 -21 -5
-3 -10 3 -10 14 0 12 5 21 10 21 6 0 10 -6 10 -14z m5140 -29 c0 -25 -18 -39
-46 -35 -38 4 -47 44 -12 57 26 10 58 -3 58 -22z m-1688 -73 l41 -42 -116 0
c-64 -1 -126 -6 -137 -12 -11 -6 -55 -22 -98 -36 -42 -14 -93 -36 -112 -49
-19 -13 -51 -30 -70 -36 -19 -6 -42 -20 -50 -29 -8 -10 -49 -32 -90 -50 -41
-18 -85 -42 -98 -53 -32 -29 -50 -11 -32 33 14 33 94 110 115 110 7 0 49 29
94 65 44 36 87 65 95 65 8 0 21 9 29 20 16 23 65 40 116 40 32 0 73 10 130 32
17 6 28 5 41 -7 18 -16 65 -21 56 -6 -4 5 -3 17 1 27 6 15 8 15 25 -7 10 -13
37 -43 60 -65z m-3397 -26 c-9 -116 -28 -176 -70 -221 -19 -21 -42 -51 -50
-67 -20 -40 -31 -44 -53 -22 -14 14 -35 20 -68 20 -75 2 -99 53 -49 106 14 15
23 32 20 37 -4 5 1 9 9 9 9 0 22 -16 31 -36 8 -21 19 -33 25 -29 6 4 9 13 6
21 -3 7 -1 16 4 19 6 4 10 15 10 25 0 18 30 33 65 35 5 0 11 9 13 20 13 77 63
165 93 165 19 0 20 -4 14 -82z m3810 -198 c3 -5 -1 -10 -9 -10 -8 0 -18 5 -21
10 -3 6 1 10 9 10 8 0 18 -4 21 -10z m45 -35 c7 -8 18 -15 25 -15 7 0 23 -9
36 -20 24 -19 24 -19 3 -20 -12 0 -39 14 -60 31 -51 40 -50 39 -32 39 9 0 21
-7 28 -15z m140 -75 c8 -5 12 -12 8 -15 -9 -9 -48 4 -48 16 0 12 21 11 40 -1z"/>
<path d="M9512 2008 c7 -19 38 -22 38 -4 0 10 -9 16 -21 16 -12 0 -19 -5 -17
-12z"/>
<path d="M10170 3345 c-23 -12 -23 -14 -7 -21 20 -7 42 8 36 24 -3 7 -13 6
-29 -3z"/>
<path d="M8580 3250 c0 -5 7 -10 15 -10 8 0 15 5 15 10 0 6 -7 10 -15 10 -8 0
-15 -4 -15 -10z"/>
<path d="M10020 3240 c0 -5 5 -10 10 -10 6 0 10 5 10 10 0 6 -4 10 -10 10 -5
0 -10 -4 -10 -10z"/>
<path d="M10108 3193 c7 -3 16 -2 19 1 4 3 -2 6 -13 5 -11 0 -14 -3 -6 -6z"/>
<path d="M9950 3170 c0 -5 4 -10 9 -10 5 0 16 -3 25 -6 9 -3 16 -1 16 6 0 6
-4 9 -9 5 -5 -3 -12 -1 -16 5 -8 13 -25 13 -25 0z"/>
<path d="M8000 3072 c-47 -2 -89 -7 -93 -11 -5 -5 -28 -4 -52 1 -27 6 -57 6
-77 0 -19 -5 -48 -7 -66 -4 -19 2 -32 0 -32 -7 0 -14 43 -25 69 -16 13 4 21 2
21 -6 0 -9 3 -9 14 0 8 7 17 8 20 3 3 -5 17 -7 31 -4 18 3 25 0 25 -11 0 -16
51 -31 60 -17 7 10 69 24 100 22 33 -2 140 34 120 41 -30 10 -56 12 -140 9z"/>
<path d="M9860 2949 c0 -5 5 -7 10 -4 6 3 10 8 10 11 0 2 -4 4 -10 4 -5 0 -10
-5 -10 -11z"/>
<path d="M7698 2923 c-41 -6 -34 -19 14 -27 23 -4 48 -11 54 -17 9 -7 16 -5
23 10 6 11 11 24 11 30 0 11 -47 12 -102 4z"/>
<path d="M7457 2887 c-8 -20 43 -43 54 -25 13 20 5 33 -23 36 -15 2 -28 -3
-31 -11z"/>
<path d="M6466 2880 c-15 -5 -36 -16 -45 -24 -9 -8 -41 -18 -71 -21 -30 -4
-65 -14 -77 -21 -12 -8 -30 -14 -40 -14 -10 0 -29 -9 -43 -20 -23 -17 -23 -19
-7 -26 12 -4 33 1 57 15 21 11 47 21 58 21 11 0 25 7 32 15 7 8 25 15 41 15
16 0 37 4 47 9 9 6 41 17 70 26 53 17 70 36 30 34 -13 0 -36 -5 -52 -9z"/>
<path d="M506 2813 c-4 -5 -13 -8 -18 -8 -6 0 -13 -6 -15 -12 -6 -18 22 -16
37 2 13 16 9 31 -4 18z"/>
<path d="M541 2773 c0 -36 3 -43 9 -28 12 28 12 63 0 70 -6 4 -10 -12 -9 -42z"/>
<path d="M7340 2761 c0 -11 5 -23 10 -26 6 -4 10 5 10 19 0 14 -4 26 -10 26
-5 0 -10 -9 -10 -19z"/>
<path d="M6081 2737 c-25 -17 -40 -32 -34 -34 14 -5 113 37 113 47 0 6 -27 22
-33 19 -1 0 -22 -15 -46 -32z"/>
<path d="M9401 2734 c-39 -39 -36 -52 6 -30 42 21 57 41 41 53 -9 8 -22 1 -47
-23z"/>
<path d="M480 2696 c0 -4 4 -14 9 -24 6 -9 13 -35 17 -57 4 -22 9 -33 11 -25
6 26 -12 103 -25 108 -6 2 -12 1 -12 -2z"/>
<path d="M7310 2628 c0 -7 5 -20 10 -28 12 -19 35 2 27 24 -7 19 -37 21 -37 4z"/>
<path d="M9908 2583 c6 -2 18 -2 25 0 6 3 1 5 -13 5 -14 0 -19 -2 -12 -5z"/>
<path d="M10130 2570 c0 -5 5 -10 10 -10 6 0 10 5 10 10 0 6 -4 10 -10 10 -5
0 -10 -4 -10 -10z"/>
<path d="M1665 2550 c-3 -6 4 -10 18 -10 14 0 39 -3 56 -6 26 -6 30 -4 25 10
-7 18 -88 23 -99 6z"/>
<path d="M1790 2496 c0 -8 14 -17 33 -21 30 -7 95 -69 90 -87 -2 -4 6 -8 17
-8 32 0 24 14 -42 74 -61 55 -98 71 -98 42z"/>
<path d="M5212 2377 c-33 -19 -15 -29 19 -11 16 8 29 17 29 19 0 9 -25 4 -48
-8z"/>
<path d="M1330 2333 c1 -13 100 -76 108 -69 4 4 0 12 -8 16 -8 5 -34 21 -57
35 -24 14 -43 23 -43 18z"/>
<path d="M8110 2095 c0 -8 2 -15 4 -15 2 0 12 -3 20 -6 12 -4 15 -2 10 9 -8
21 -34 30 -34 12z"/>
<path d="M3540 1710 c0 -5 6 -10 14 -10 8 0 18 5 21 10 3 6 -3 10 -14 10 -12
0 -21 -4 -21 -10z"/>
<path d="M3460 1670 c0 -5 6 -10 14 -10 8 0 18 5 21 10 3 6 -3 10 -14 10 -12
0 -21 -4 -21 -10z"/>
<path d="M2098 1643 c-10 -2 -18 -11 -18 -19 0 -8 -7 -25 -16 -38 -10 -17 -12
-26 -4 -31 15 -9 40 13 40 35 0 10 7 23 15 30 16 13 20 31 8 29 -5 -1 -16 -3
-25 -6z"/>
<path d="M3388 1643 c6 -2 18 -2 25 0 6 3 1 5 -13 5 -14 0 -19 -2 -12 -5z"/>
<path d="M3293 1623 c15 -2 37 -2 50 0 12 2 0 4 -28 4 -27 0 -38 -2 -22 -4z"/>
<path d="M3193 1603 c9 -2 23 -2 30 0 6 3 -1 5 -18 5 -16 0 -22 -2 -12 -5z"/>
<path d="M10086 1601 c-18 -7 -18 -8 -2 -14 10 -4 24 -1 32 8 17 17 4 19 -30
6z"/>
<path d="M1939 1565 c-19 -13 -50 -33 -69 -44 -39 -21 -136 -91 -161 -115 -9
-9 -18 -16 -22 -16 -12 0 -97 -62 -97 -71 0 -14 8 -12 99 28 50 21 100 36 120
35 19 -1 41 4 48 10 10 8 17 8 25 0 7 -7 19 -12 27 -12 11 0 11 4 -3 19 -17
18 -16 20 3 26 12 3 21 14 21 23 0 22 41 105 57 115 7 4 13 12 13 17 0 17 -26
11 -61 -15z"/>
<path d="M2195 1577 c-4 -10 -5 -21 -1 -24 10 -10 18 4 13 24 -4 17 -4 17 -12
0z"/>
<path d="M8926 1574 c-9 -22 -8 -24 9 -24 8 0 15 6 15 14 0 22 -17 28 -24 10z"/>
<path d="M10110 1511 c0 -12 5 -21 10 -21 6 0 10 6 10 14 0 8 -4 18 -10 21 -5
3 -10 -3 -10 -14z"/>
<path d="M2110 1510 c0 -11 87 -33 100 -25 24 15 2 28 -48 30 -29 1 -52 -1
-52 -5z"/>
<path d="M8927 1513 c-4 -3 -7 -12 -7 -20 0 -15 26 -18 34 -4 7 11 -18 33 -27
24z"/>
<path d="M8637 1463 c-13 -12 -7 -43 8 -43 8 0 15 6 15 13 0 18 -15 38 -23 30z"/>
<path d="M2190 1405 c-7 -8 -21 -15 -32 -15 -11 0 -18 -5 -15 -12 4 -12 36
-14 65 -3 14 5 17 45 3 45 -5 0 -14 -7 -21 -15z"/>
<path d="M8686 1373 c-9 -10 24 -63 39 -63 17 0 19 14 5 39 -10 20 -35 33 -44
24z"/>
<path d="M2378 1353 c-10 -2 -18 -9 -18 -15 0 -6 10 -8 23 -4 12 3 25 6 30 6
4 0 7 5 7 10 0 10 -12 11 -42 3z"/>
<path d="M2195 1300 c-3 -5 -1 -10 4 -10 6 0 11 5 11 10 0 6 -2 10 -4 10 -3 0
-8 -4 -11 -10z"/>
<path d="M2110 1291 c-8 -5 -42 -12 -75 -15 -73 -9 -95 -15 -95 -26 0 -11 87
-6 160 10 79 18 82 19 75 30 -7 12 -44 13 -65 1z"/>
<path d="M2085 1227 c-33 -11 -76 -26 -95 -33 l-35 -13 35 0 c19 0 71 15 115
34 87 37 76 44 -20 12z"/>
<path d="M1900 1160 c0 -5 11 -10 25 -10 14 0 25 5 25 10 0 6 -11 10 -25 10
-14 0 -25 -4 -25 -10z"/>
<path d="M1805 940 c-3 -5 -1 -10 4 -10 6 0 11 5 11 10 0 6 -2 10 -4 10 -3 0
-8 -4 -11 -10z"/>
<path d="M1112 541 c-10 -6 -7 -10 12 -13 16 -3 25 -1 23 5 -5 15 -20 18 -35
8z"/>
<path d="M1060 511 c-84 -47 -774 -381 -785 -381 -3 0 -51 -20 -108 -44 -56
-24 -117 -47 -135 -50 -18 -4 -32 -14 -32 -22 0 -11 17 -14 79 -14 44 0 82 4
86 9 3 5 22 15 43 21 20 7 54 23 74 36 21 13 44 24 52 24 12 0 105 42 156 71
8 5 29 15 45 24 17 8 37 19 45 24 18 11 49 23 113 46 26 9 54 23 61 31 8 8 21
14 28 14 7 0 33 13 57 29 25 17 48 28 52 25 5 -3 28 8 51 23 24 15 59 35 78
44 21 10 35 25 35 35 0 10 12 25 28 32 15 7 25 17 22 23 -7 11 -25 11 -45 0z"/>
<path d="M1176 311 c-4 -5 -2 -20 2 -32 l9 -23 12 21 c6 12 11 26 11 32 0 13
-27 15 -34 2z"/>
<path d="M1100 293 c0 -5 5 -15 10 -23 7 -12 9 -10 7 8 -1 19 -17 33 -17 15z"/>
<path d="M1225 150 c-3 -5 -1 -10 4 -10 6 0 11 5 11 10 0 6 -2 10 -4 10 -3 0
-8 -4 -11 -10z"/>
<path d="M725 114 c-38 -19 -74 -39 -79 -44 -6 -6 -18 -10 -28 -10 -24 0 -109
-29 -133 -46 -17 -12 28 -14 313 -14 212 0 332 4 332 10 0 5 -7 18 -16 29 -13
15 -25 18 -51 14 -22 -4 -39 -1 -51 9 -19 17 -75 30 -66 17 11 -18 -10 -8 -30
14 -12 13 -34 27 -49 31 -15 3 -27 11 -27 16 0 19 -46 9 -115 -26z"/>
</g>
</svg>
